<svg width="15" height="15" viewBox="0 0 15 15" fill="none" xmlns="http://www.w3.org/2000/svg">
<path fill-rule="evenodd" clip-rule="evenodd" d="M0.887131 0L2.09034 13.5005L7.49195 15L12.908 13.4984L14.1128 0H0.887131ZM7.50266 10.2974L7.50427 10.2969V10.2963L9.35088 9.79813L9.54385 7.65112H7.5V7.65089H5.67912L5.64591 7.27857L5.57091 6.4391L5.53127 5.995H7.50002V5.99523H9.69107L9.84214 4.29969H7.5059H7.5H3.50626L3.47304 3.92737L3.39751 3.08791L3.35786 2.6438H7.5H7.5059H11.6518L11.6121 3.08791L11.2055 7.65112H11.2051L10.9237 10.7988L10.8986 11.0785L7.51016 12.0176V12.0181L7.50213 12.0202L4.11052 11.0785L3.87856 8.47864H5.54088L5.65873 9.79917L7.50266 10.2974Z" fill="#A5B8CA"/>
</svg>
