<svg width="15" height="15" viewBox="0 0 15 15" fill="none" xmlns="http://www.w3.org/2000/svg">
<g clip-path="url(#clip0)">
<path d="M15 11.6175C14.7817 11.7001 14.5407 11.6999 14.3225 11.617C14.1043 11.5341 13.924 11.3742 13.8156 11.1675L11.6594 8.18564L11.3469 7.76876L8.845 11.1713C8.74311 11.3693 8.57259 11.5234 8.36531 11.6049C8.15803 11.6863 7.92819 11.6895 7.71875 11.6138L10.9425 7.28876L7.94375 3.38189C8.15937 3.30419 8.39518 3.30316 8.61147 3.37897C8.82776 3.45479 9.01133 3.60282 9.13125 3.79814L11.3662 6.81689L13.6137 3.81064C13.7164 3.61613 13.887 3.46613 14.093 3.38916C14.2991 3.31218 14.5262 3.3136 14.7312 3.39314L13.5675 4.93751L11.9912 6.98939C11.9475 7.02844 11.9124 7.0763 11.8885 7.12983C11.8645 7.18336 11.8521 7.24136 11.8521 7.30001C11.8521 7.35867 11.8645 7.41667 11.8885 7.4702C11.9124 7.52373 11.9475 7.57159 11.9912 7.61064L14.9937 11.6181L15 11.6175ZM0.00124605 7.23501L0.263746 5.93814C0.984996 3.37376 3.925 2.30689 5.9475 3.89439C7.13187 4.82501 7.4275 6.14251 7.36937 7.62751H0.697496C0.589371 10.2794 2.50312 11.8806 4.95 11.0625C5.34666 10.9197 5.70171 10.6808 5.98334 10.3671C6.26498 10.0534 6.4644 9.67472 6.56375 9.26501C6.69312 8.84876 6.90625 8.77751 7.2975 8.89751C7.2323 9.40525 7.05281 9.8916 6.77254 10.32C6.49227 10.7483 6.11851 11.1076 5.67937 11.3706C4.95401 11.7674 4.12176 11.9247 3.30164 11.8199C2.48151 11.7152 1.7155 11.3538 1.11312 10.7875C0.517514 10.1171 0.157544 9.27032 0.0881211 8.37626C0.0881211 8.22939 0.0381211 8.09189 0.00437105 7.96001C0.00132857 7.71857 -0.000129792 7.4771 -3.94642e-06 7.23564L0.00124605 7.23501ZM0.705621 7.05626H6.73937C6.70187 5.13376 5.48875 3.77001 3.87062 3.75751C2.06937 3.73251 0.780621 5.06626 0.701246 7.04751L0.705621 7.05626Z" fill="#BDBDBD"/>
</g>
<defs>
<clipPath id="clip0">
<rect width="15" height="15" fill="white"/>
</clipPath>
</defs>
</svg>
