<svg width="15" height="15" viewBox="0 0 15 15" fill="none" xmlns="http://www.w3.org/2000/svg">
<path d="M10.5377 4.99993C11.0701 4.73483 11.4973 4.29762 11.75 3.75924C12.0027 3.22086 12.066 2.61289 11.9298 2.03396C11.7936 1.45504 11.4658 0.939122 10.9995 0.569918C10.5332 0.200713 9.9559 -0.000119786 9.36116 8.5468e-08H4.63894C4.04418 -0.000151248 3.46681 0.200669 3.00052 0.569877C2.53423 0.939086 2.20637 1.45502 2.07014 2.03397C1.93391 2.61292 1.9973 3.22092 2.25003 3.75931C2.50275 4.29771 2.92999 4.73492 3.46241 5C3.02318 5.21859 2.65362 5.55536 2.3953 5.97246C2.13697 6.38957 2.00012 6.87046 2.00012 7.36108C2.00012 7.85169 2.13697 8.33259 2.3953 8.74969C2.65362 9.16679 3.02318 9.50357 3.46241 9.72215C3.04175 9.93181 2.68473 10.25 2.42827 10.6439C2.17181 11.0378 2.02522 11.493 2.00366 11.9625C1.9821 12.4321 2.08635 12.8988 2.30563 13.3145C2.52491 13.7303 2.85126 14.0799 3.25093 14.3272C3.6506 14.5745 4.10909 14.7106 4.57898 14.7214C5.04886 14.7321 5.5131 14.6172 5.92367 14.3884C6.33424 14.1596 6.67624 13.8253 6.91431 13.42C7.15239 13.0148 7.27788 12.5533 7.27783 12.0833V8.97785C7.52071 9.29103 7.83105 9.54545 8.18577 9.72222C8.5405 9.89898 8.9305 9.99353 9.32679 9.99886C9.72308 10.0042 10.1155 9.92014 10.4748 9.75297C10.8342 9.5858 11.1512 9.3398 11.4024 9.03326C11.6537 8.72671 11.8326 8.3675 11.9259 7.98231C12.0192 7.59712 12.0245 7.19586 11.9414 6.80834C11.8583 6.42082 11.689 6.057 11.4459 5.74392C11.2029 5.43084 10.8925 5.17654 10.5377 4.99993ZM11.4445 2.63889C11.4439 3.191 11.2244 3.72034 10.8341 4.11087C10.4439 4.5014 9.91466 4.72125 9.36255 4.72222L9.36116 4.72215L9.35845 4.72222L7.27783 4.72215V0.555556H9.36116C9.9135 0.556181 10.443 0.775875 10.8336 1.16644C11.2242 1.55701 11.4439 2.08655 11.4445 2.63889V2.63889ZM7.74428 5.27778C7.57006 5.41332 7.41337 5.57001 7.27783 5.74424V5.27771L7.74428 5.27778ZM2.5556 2.63882C2.55623 2.08648 2.77592 1.55694 3.16649 1.16637C3.55705 0.775805 4.0866 0.556111 4.63894 0.555486H6.72227V4.72215H4.63762C4.08552 4.72118 3.55632 4.50134 3.16605 4.11083C2.77577 3.72031 2.55625 3.19099 2.5556 2.63889V2.63882ZM4.63894 14.1665C4.36393 14.1687 4.0912 14.1165 3.83647 14.0128C3.58175 13.9091 3.35007 13.756 3.15481 13.5623C2.95955 13.3687 2.80457 13.1382 2.69881 12.8844C2.59305 12.6305 2.53859 12.3582 2.53859 12.0832C2.53859 11.8082 2.59305 11.5359 2.69881 11.282C2.80457 11.0281 2.95955 10.7977 3.15481 10.6041C3.35007 10.4104 3.58175 10.2573 3.83647 10.1536C4.0912 10.0499 4.36393 9.99769 4.63894 9.99993H6.72227V12.0833C6.72163 12.6356 6.50193 13.1651 6.11136 13.5557C5.7208 13.9462 5.19127 14.1659 4.63894 14.1665V14.1665ZM6.72227 9.44424L4.63894 9.44438C4.0864 9.44455 3.55643 9.22522 3.16561 8.83465C2.77478 8.44407 2.55512 7.91424 2.55494 7.3617C2.55477 6.80917 2.77409 6.27919 3.16467 5.88837C3.55525 5.49754 4.08508 5.27788 4.63762 5.27771L4.63894 5.27778H6.72227V9.44424ZM9.36116 9.44431C8.8107 9.4415 8.28373 9.22097 7.89535 8.83087C7.50698 8.44077 7.28878 7.91282 7.28842 7.36235C7.28807 6.81189 7.50558 6.28366 7.89344 5.89305C8.28131 5.50245 8.808 5.28122 9.35845 5.27771H9.36255C9.91508 5.27789 10.4449 5.49756 10.8355 5.88839C11.2261 6.27922 11.4454 6.8092 11.4452 7.36174C11.445 7.91427 11.2253 8.4441 10.8345 8.83467C10.4437 9.22524 9.91369 9.44456 9.36116 9.44438V9.44431Z" fill="#A5B8CA"/>
</svg>
