<svg width="15" height="15" viewBox="0 0 15 15" fill="none" xmlns="http://www.w3.org/2000/svg">
<g clip-path="url(#clip0)">
<path d="M2.09041 13.5005L0.886658 0H14.1134L12.9081 13.4984L7.49202 15L2.09041 13.5005Z" fill="#E44F26"/>
<path d="M7.50005 13.8525L11.8768 12.6391L12.9065 1.10413H7.50005V13.8525Z" fill="#F1662A"/>
<path d="M7.50004 6.11083H5.30897L5.15789 4.41529H7.50004V2.7594H3.34825L3.38789 3.20404L3.7945 7.76672H7.50004V6.11083V6.11083Z" fill="#EBEBEB"/>
<path d="M7.50003 10.411L7.49253 10.4132L5.6486 9.91551L5.53075 8.59497H3.86842L4.10039 11.1943L7.49253 12.136L7.50003 12.1339V10.411Z" fill="#EBEBEB"/>
<path d="M7.49416 6.11096V7.76685H9.53308L9.3413 9.91453L7.49416 10.4127V12.1356L10.889 11.1944L10.9136 10.9147L11.3025 6.55561L11.3433 6.11096H7.49416V6.11096Z" fill="white"/>
<path d="M7.49416 2.7594V4.41529H11.4938L11.527 4.04351L11.6025 3.20404L11.6422 2.7594H7.49416V2.7594Z" fill="white"/>
</g>
<defs>
<clipPath id="clip0">
<rect width="15" height="15" fill="white"/>
</clipPath>
</defs>
</svg>
