<svg width="15" height="15" viewBox="0 0 15 15" fill="none" xmlns="http://www.w3.org/2000/svg">
<path d="M0.3 0.3H14.7V14.7H0.3V0.3Z" stroke="#A5B8CA" stroke-width="0.6"/>
<path d="M2.40005 9.72932L3.5479 9.03462C3.76938 9.42722 3.97083 9.75952 4.45405 9.75952C4.91724 9.75952 5.20933 9.57832 5.20933 8.87352V4.08069H6.61892V8.89342C6.61892 10.3534 5.7631 11.018 4.51446 11.018C3.38683 11.018 2.73228 10.434 2.39999 9.72922" fill="#A5B8CA"/>
<path d="M7.38457 9.57821L8.5323 8.91371C8.8345 9.40711 9.2272 9.76951 9.9219 9.76951C10.506 9.76951 10.8784 9.47751 10.8784 9.07471C10.8784 8.59151 10.4958 8.42021 9.8514 8.13841L9.499 7.98721C8.482 7.55441 7.80744 7.01066 7.80744 5.86281C7.80744 4.80554 8.6129 4 9.8716 4C10.7677 4 11.4121 4.31218 11.8753 5.12775L10.7777 5.83263C10.536 5.39968 10.2743 5.22853 9.8715 5.22853C9.4587 5.22853 9.1969 5.49033 9.1969 5.83263C9.1969 6.2555 9.4587 6.42677 10.0628 6.68857L10.4152 6.83957C11.6134 7.35311 12.288 7.87671 12.288 9.05461C12.288 10.3234 11.2912 11.0181 9.952 11.0181C8.6431 11.0181 7.79731 10.3939 7.38451 9.57821" fill="#A5B8CA"/>
</svg>
