<svg width="15" height="15" viewBox="0 0 15 15" fill="none" xmlns="http://www.w3.org/2000/svg">
<g clip-path="url(#clip0_425:2)">
<path d="M7.58249 5.9125L7.58358 5.6125C7.47902 5.61212 7.40563 5.66279 7.36754 5.6991C7.33117 5.73378 7.31048 5.76994 7.30018 5.78994C7.27914 5.83078 7.26763 5.87198 7.26113 5.8981C7.2469 5.95526 7.23635 6.02637 7.22776 6.10034C7.21013 6.25214 7.19566 6.46254 7.1835 6.7069C7.15907 7.19776 7.1429 7.84948 7.13214 8.49792C7.12138 9.14711 7.116 9.79602 7.11331 10.2824C7.11196 10.5257 7.11129 10.7284 7.11095 10.8704L7.11066 11.0352L7.11062 11.0787L7.11062 11.0899L7.11062 11.0928V11.0935V11.0937L7.41062 11.0938H7.11062C7.11062 11.333 7.17779 11.7308 7.27141 12.0665C7.31865 12.2359 7.37718 12.4064 7.44585 12.5422C7.4798 12.6093 7.52249 12.6807 7.57631 12.7408C7.62105 12.7908 7.7006 12.8634 7.81628 12.8886L7.7954 12.9034L7.7703 13.016C7.71275 13.2742 7.66088 13.5336 7.61472 13.794C7.58949 13.5862 7.56284 13.3785 7.53479 13.1711L7.51741 13.0425L7.41187 12.9671L7.37008 12.9373C7.36976 12.9371 7.36943 12.9368 7.36911 12.9366C6.99078 12.6615 4.27014 10.5443 4.4384 7.01679L4.4384 7.01678C4.62122 3.17996 6.86681 1.30452 7.28617 0.976224L7.30431 0.962026L7.32006 0.945226C7.37334 0.888418 7.42093 0.834505 7.46302 0.781699C7.51553 0.877911 7.57094 0.970205 7.62895 1.05383C7.67594 1.14348 7.74709 1.22841 7.81214 1.30096C7.87497 1.37103 7.95252 1.4512 8.03606 1.53758C8.05435 1.55649 8.07292 1.57569 8.09169 1.59515C8.30482 1.81612 8.57209 2.09946 8.85669 2.47394C9.42306 3.21919 10.0663 4.33652 10.4512 6.03005C10.5084 6.37013 10.5746 6.87563 10.5688 7.35444L10.5687 7.35444L10.5688 7.36178C10.5803 8.31161 10.3925 9.2533 10.0173 10.126C9.64208 10.9986 9.08793 11.7828 8.39064 12.4279L8.38948 12.429C8.32015 12.4938 8.25978 12.5493 8.18914 12.6084L8.18864 12.5891L7.88874 12.5969L8.18864 12.589L8.18863 12.5888L8.18861 12.5879L8.18851 12.5842L8.18814 12.5698L8.18666 12.5138L8.18093 12.3015C8.17593 12.1185 8.16865 11.8572 8.15948 11.5437C8.14116 10.9166 8.11534 10.0804 8.08535 9.24394C8.05537 8.40795 8.02116 7.56997 7.98604 6.94023C7.96852 6.62601 7.95057 6.36007 7.93251 6.17117C7.9236 6.07796 7.91404 5.99667 7.90337 5.93578C7.89839 5.90741 7.89109 5.87088 7.87958 5.83648C7.87452 5.82136 7.86279 5.78828 7.83992 5.75327L7.8398 5.75308C7.82834 5.73554 7.74798 5.6125 7.58249 5.6125V5.9125ZM7.58249 5.9125C7.59938 5.9125 7.61691 6.02006 7.63465 6.20788L7.43991 8.08147C7.42277 7.67524 7.40497 7.29638 7.38697 6.97364C7.36955 6.6612 7.35212 6.40492 7.33523 6.22827C7.32667 6.1387 7.31886 6.07638 7.31237 6.03936C7.31015 6.02664 7.30883 6.0214 7.30886 6.02139C7.30888 6.02138 7.30942 6.02339 7.31059 6.02687L7.31067 6.02713C7.31185 6.03068 7.31946 6.05365 7.3376 6.08141L7.33793 6.08192C7.3453 6.09325 7.40212 6.18065 7.51822 6.20577C7.5364 6.0206 7.55765 5.91241 7.58249 5.9125Z" stroke="#A5B8CA" stroke-width="0.6"/>
</g>
<defs>
<clipPath id="clip0_425:2">
<rect width="15" height="15" fill="white"/>
</clipPath>
</defs>
</svg>
