<svg width="15" height="15" viewBox="0 0 15 15" fill="none" xmlns="http://www.w3.org/2000/svg">
<g clip-path="url(#clip0)">
<path d="M7.00881 0.00421631C6.97658 0.007146 6.87393 0.0173999 6.78152 0.0247241C4.65105 0.216794 2.65541 1.36617 1.39148 3.13277C0.687656 4.11504 0.237539 5.22926 0.0674414 6.40945C0.00732422 6.82136 0 6.94306 0 7.50164C0 8.06021 0.00732422 8.18191 0.0674414 8.59382C0.475078 11.4101 2.47945 13.7764 5.19791 14.6531C5.68477 14.81 6.19793 14.917 6.78152 14.9815C7.00881 15.0064 7.99119 15.0064 8.21848 14.9815C9.22582 14.87 10.0792 14.6208 10.9208 14.1913C11.0498 14.1253 11.0748 14.1077 11.0572 14.093C11.0454 14.0842 10.4956 13.3468 9.83578 12.4554L8.63637 10.8354L7.13344 8.61146C6.30645 7.38873 5.62611 6.38888 5.62025 6.38888C5.61439 6.38742 5.60854 7.3756 5.60561 8.58211C5.60115 10.6947 5.59975 10.7797 5.57332 10.8296C5.53523 10.9014 5.50588 10.9308 5.4443 10.963C5.39736 10.9864 5.35629 10.9908 5.13492 10.9908H4.88121L4.81383 10.9484C4.77204 10.9222 4.7381 10.8852 4.71557 10.8413L4.68475 10.7753L4.68768 7.83591L4.69207 4.89498L4.73754 4.83779C4.76098 4.80703 4.81084 4.76748 4.84605 4.74838C4.90617 4.71908 4.92961 4.71615 5.18326 4.71615C5.48238 4.71615 5.53225 4.72787 5.60994 4.81289C5.63197 4.83633 6.44572 6.06199 7.41932 7.53832C8.39297 9.01459 9.72439 11.0304 10.3783 12.02L11.566 13.8189L11.6261 13.7793C12.1584 13.4333 12.7214 12.9407 13.1671 12.4276C14.1158 11.3383 14.7272 10.0101 14.9326 8.59388C14.9927 8.18191 15 8.06021 15 7.5017C15 6.94306 14.9927 6.82142 14.9326 6.40945C14.5249 3.59314 12.5205 1.22689 9.80209 0.350212C9.32256 0.194822 8.81232 0.087771 8.24045 0.0232593C8.09971 0.00861084 7.13051 -0.00750244 7.00881 0.00421631ZM10.0792 4.54019C10.1496 4.57535 10.2067 4.64285 10.2272 4.71322C10.239 4.75131 10.2419 5.56646 10.239 7.40343L10.2346 10.0394L9.7698 9.32689L9.30352 8.61439V6.69826C9.30352 5.45941 9.30937 4.76302 9.31816 4.72933C9.3416 4.64724 9.39299 4.58273 9.46336 4.54459C9.52348 4.51383 9.54545 4.5109 9.77566 4.5109C9.99269 4.5109 10.0308 4.51383 10.0792 4.54019Z" fill="#BDBDBD"/>
</g>
<defs>
<clipPath id="clip0">
<rect width="15" height="15" fill="white"/>
</clipPath>
</defs>
</svg>
