<svg width="18" height="18" viewBox="0 0 18 18" fill="none" xmlns="http://www.w3.org/2000/svg">
<path d="M17.2969 7.5375C16.6219 3.57187 13.1625 0.5625 9 0.5625C4.8375 0.5625 1.37813 3.57187 0.703125 7.5375L9 3.375L17.2969 7.5375Z" fill="#699635"/>
<path d="M0.703125 10.4625C1.37813 14.4281 4.8375 17.4375 9 17.4375C13.1625 17.4375 16.6219 14.4281 17.2969 10.4625L9 14.625L0.703125 10.4625Z" fill="#699635"/>
<path d="M9 3.375L0.703125 7.5375C0.61875 8.01562 0.5625 8.49375 0.5625 9C0.5625 9.50625 0.61875 9.98438 0.703125 10.4625L9 14.625L17.2969 10.4625C17.3813 9.98438 17.4375 9.50625 17.4375 9C17.4375 8.49375 17.3813 8.01562 17.2969 7.5375L9 3.375Z" fill="#FFE62E"/>
<path d="M7.3125 7.98749C6.4125 7.98749 5.56875 8.18436 4.80938 8.52186C4.78125 8.69061 4.78125 8.83124 4.78125 8.99999C4.78125 11.3344 6.66562 13.2187 9 13.2187C10.575 13.2187 11.9531 12.3469 12.6844 11.0812C11.6437 9.25311 9.61875 7.98749 7.3125 7.98749Z" fill="#428BC1"/>
<path d="M13.1625 9.675C13.1906 9.45 13.2188 9.225 13.2188 9C13.2188 6.66562 11.3344 4.78125 9 4.78125C7.34062 4.78125 5.90625 5.7375 5.20312 7.14375C5.87813 6.94687 6.58125 6.83437 7.3125 6.83437C9.70312 6.83437 11.8125 7.95938 13.1625 9.675Z" fill="#428BC1"/>
<path d="M7.3125 6.83438C6.58125 6.83438 5.87812 6.94688 5.20312 7.14376C5.00625 7.56563 4.86562 8.01563 4.80937 8.52188C5.56875 8.18438 6.4125 7.98751 7.3125 7.98751C9.61875 7.98751 11.6437 9.22501 12.6844 11.0531C12.9375 10.6313 13.0781 10.1531 13.1625 9.67501C11.8125 7.95938 9.70312 6.83438 7.3125 6.83438Z" fill="white"/>
<path d="M6.1875 9.28125C6.34283 9.28125 6.46875 9.15533 6.46875 9C6.46875 8.84467 6.34283 8.71875 6.1875 8.71875C6.03217 8.71875 5.90625 8.84467 5.90625 9C5.90625 9.15533 6.03217 9.28125 6.1875 9.28125Z" fill="white"/>
<path d="M7.3125 10.9688C7.46783 10.9688 7.59375 10.8428 7.59375 10.6875C7.59375 10.5322 7.46783 10.4062 7.3125 10.4062C7.15717 10.4062 7.03125 10.5322 7.03125 10.6875C7.03125 10.8428 7.15717 10.9688 7.3125 10.9688Z" fill="white"/>
<path d="M9 10.9688C9.15533 10.9688 9.28125 10.8428 9.28125 10.6875C9.28125 10.5322 9.15533 10.4062 9 10.4062C8.84467 10.4062 8.71875 10.5322 8.71875 10.6875C8.71875 10.8428 8.84467 10.9688 9 10.9688Z" fill="white"/>
<path d="M9 12.0938C9.15533 12.0938 9.28125 11.9678 9.28125 11.8125C9.28125 11.6572 9.15533 11.5312 9 11.5312C8.84467 11.5312 8.71875 11.6572 8.71875 11.8125C8.71875 11.9678 8.84467 12.0938 9 12.0938Z" fill="white"/>
<path d="M11.25 10.9688C11.4053 10.9688 11.5312 10.8428 11.5312 10.6875C11.5312 10.5322 11.4053 10.4062 11.25 10.4062C11.0947 10.4062 10.9688 10.5322 10.9688 10.6875C10.9688 10.8428 11.0947 10.9688 11.25 10.9688Z" fill="white"/>
<path d="M11.25 12.0938C11.4053 12.0938 11.5312 11.9678 11.5312 11.8125C11.5312 11.6572 11.4053 11.5312 11.25 11.5312C11.0947 11.5312 10.9688 11.6572 10.9688 11.8125C10.9688 11.9678 11.0947 12.0938 11.25 12.0938Z" fill="white"/>
<path d="M10.125 11.5312C10.2803 11.5312 10.4062 11.4053 10.4062 11.25C10.4062 11.0947 10.2803 10.9688 10.125 10.9688C9.96967 10.9688 9.84375 11.0947 9.84375 11.25C9.84375 11.4053 9.96967 11.5312 10.125 11.5312Z" fill="white"/>
<path d="M6.1875 10.4062C6.34283 10.4062 6.46875 10.2803 6.46875 10.125C6.46875 9.96967 6.34283 9.84375 6.1875 9.84375C6.03217 9.84375 5.90625 9.96967 5.90625 10.125C5.90625 10.2803 6.03217 10.4062 6.1875 10.4062Z" fill="white"/>
</svg>
