<svg width="15" height="15" viewBox="0 0 15 15" fill="none" xmlns="http://www.w3.org/2000/svg">
<path d="M7.5 3C5.633 3 4.467 4 4 6C4.7 5 5.517 4.625 6.45 4.875C6.983 5.018 7.363 5.432 7.784 5.89C8.471 6.636 9.265 7.5 11 7.5C12.867 7.5 14.033 6.5 14.5 4.5C13.8 5.5 12.983 5.875 12.05 5.625C11.517 5.482 11.137 5.068 10.716 4.61C10.029 3.864 9.235 3 7.5 3ZM4 7.5C2.133 7.5 0.967 8.5 0.5 10.5C1.2 9.5 2.017 9.125 2.95 9.375C3.483 9.518 3.863 9.932 4.284 10.39C4.971 11.136 5.765 12 7.5 12C9.367 12 10.533 11 11 9C10.3 10 9.483 10.375 8.55 10.125C8.017 9.982 7.637 9.568 7.216 9.11C6.529 8.364 5.735 7.5 4 7.5Z" stroke="#A5B8CA" stroke-width="0.4" stroke-linejoin="round"/>
</svg>
