<svg width="15" height="15" viewBox="0 0 15 15" fill="none" xmlns="http://www.w3.org/2000/svg">
<path d="M0 7.5V15H15V0H0V7.5Z" fill="#007ACC"/>
<path d="M3.31706 7.54977L3.31232 8.16401H5.26466V13.7117H6.64572V8.16401H8.59806V7.56166C8.59806 7.22826 8.59091 6.94971 8.58142 6.94256C8.57427 6.93307 7.38616 6.92826 5.9457 6.93067L3.32427 6.93782L3.31712 7.54971L3.31706 7.54977Z" fill="white"/>
<path d="M12.1035 6.92037C12.4844 7.01565 12.7749 7.18463 13.0416 7.46084C13.1797 7.6085 13.3844 7.87756 13.4011 7.94184C13.4058 7.96088 12.7535 8.39899 12.3583 8.6442C12.344 8.65375 12.2868 8.59182 12.2225 8.49654C12.0297 8.21565 11.8273 8.09418 11.5178 8.07279C11.0631 8.0418 10.7702 8.27992 10.7726 8.67748C10.7726 8.7942 10.7892 8.86322 10.8368 8.9585C10.9369 9.16563 11.1225 9.28943 11.7059 9.5418C12.7797 10.0038 13.2392 10.3085 13.525 10.7418C13.844 11.2252 13.9154 11.9966 13.6987 12.5704C13.4607 13.1942 12.8702 13.618 12.0392 13.7585C11.7821 13.8037 11.1726 13.7966 10.8964 13.7466C10.294 13.6394 9.72257 13.3418 9.37018 12.9514C9.23208 12.799 8.96302 12.4013 8.97972 12.3728C8.98686 12.3633 9.04874 12.3252 9.11776 12.2847C9.18444 12.2466 9.43686 12.1013 9.67493 11.9632L10.1059 11.7132L10.1964 11.8466C10.3226 12.0394 10.5987 12.3037 10.7654 12.3918C11.244 12.6442 11.9011 12.6085 12.2249 12.318C12.363 12.1918 12.4202 12.0609 12.4202 11.868C12.4202 11.6942 12.3987 11.618 12.3083 11.4871C12.1916 11.3204 11.9535 11.1799 11.2773 10.8871C10.5035 10.5537 10.1702 10.3466 9.86542 10.018C9.68923 9.82756 9.52253 9.52276 9.4535 9.26799C9.39638 9.05611 9.38202 8.52514 9.42731 8.31086C9.58686 7.5632 10.1511 7.04184 10.9654 6.88703C11.2297 6.83705 11.844 6.8561 12.1035 6.92043V6.92037Z" fill="white"/>
</svg>
