<svg width="54" height="54" viewBox="0 0 54 54" fill="none" xmlns="http://www.w3.org/2000/svg">
<path d="M33.7635 23.4846L27 29.7L20.2338 23.4846C19.9752 23.2303 19.6271 23.0878 19.2645 23.0878C18.9019 23.0878 18.5537 23.2303 18.2952 23.4846C18.1687 23.6101 18.0682 23.7594 17.9997 23.9239C17.9312 24.0884 17.8959 24.2649 17.8959 24.4431C17.8959 24.6213 17.9312 24.7978 17.9997 24.9623C18.0682 25.1268 18.1687 25.2761 18.2952 25.4016L26.028 32.9805C26.2857 33.2353 26.6335 33.3781 26.9959 33.3781C27.3583 33.3781 27.7061 33.2353 27.9639 32.9805L35.6967 25.4016C35.8239 25.2765 35.9249 25.1273 35.9938 24.9627C36.0628 24.7982 36.0983 24.6215 36.0983 24.4431C36.0983 24.2647 36.0628 24.088 35.9938 23.9235C35.9249 23.7589 35.8239 23.6097 35.6967 23.4846C35.4391 23.2307 35.0918 23.0883 34.7301 23.0883C34.3683 23.0883 34.0211 23.2307 33.7635 23.4846ZM27 1.08C20.1256 1.08 13.5327 3.81085 8.67178 8.67179C3.81084 13.5327 1.07999 20.1256 1.07999 27C1.07999 41.3181 12.6846 52.92 27 52.92C41.3154 52.92 52.92 41.3181 52.92 27C52.92 23.5961 52.2496 20.2256 50.9469 17.0808C49.6443 13.9361 47.7351 11.0787 45.3282 8.67179C42.9213 6.2649 40.0639 4.35565 36.9191 3.05304C33.7744 1.75044 30.4039 1.08 27 1.08ZM27 49.5558C24.0378 49.5562 21.1046 48.973 18.3678 47.8396C15.6311 46.7062 13.1444 45.0447 11.0498 42.9502C8.95527 40.8556 7.29384 38.3689 6.16043 35.6322C5.02702 32.8954 4.44384 29.9622 4.44419 27C4.44419 22.5389 5.76706 18.178 8.24553 14.4687C10.724 10.7594 14.2467 7.86836 18.3683 6.16116C22.4898 4.45396 27.025 4.00728 31.4004 4.87761C35.7758 5.74793 39.7949 7.89616 42.9494 11.0506C46.1038 14.2051 48.2521 18.2242 49.1224 22.5996C49.9927 26.975 49.546 31.5102 47.8388 35.6317C46.1316 39.7533 43.2406 43.276 39.5313 45.7545C35.822 48.2329 31.4611 49.5558 27 49.5558Z" fill="url(#paint0_linear)"/>
<defs>
<linearGradient id="paint0_linear" x1="1.07999" y1="51.0033" x2="21.8033" y2="4.73213" gradientUnits="userSpaceOnUse">
<stop stop-color="#569139"/>
<stop offset="1" stop-color="#89DA61"/>
</linearGradient>
</defs>
</svg>
