<svg width="80" height="106" viewBox="0 0 80 106" fill="none" xmlns="http://www.w3.org/2000/svg">
<path fill-rule="evenodd" clip-rule="evenodd" d="M68.0242 7.78649C61.6518 2.91718 53.7342 1.36868 48.3967 1.44718L48.3914 1.44725H17.0973C11.1785 1.54133 7.37048 4.12824 4.98288 7.30917C2.57905 10.5117 1.60226 14.3397 1.44436 16.8759V97.738H5.25518C11.8955 96.9808 15.9359 94.302 18.3147 91.3233C20.7148 88.3179 21.4622 84.9586 21.4248 82.8256L21.4247 82.8192V62.5918H48.3638C60.6743 61.8289 68.2135 56.9085 72.6693 51.1315C77.1487 45.3239 78.5548 38.5937 78.477 34.1989L78.4766 34.172L78.4781 34.1452C79.2356 20.7931 74.3546 12.6237 68.0242 7.78649ZM79.9216 34.2003C80.6967 20.414 75.6298 11.7804 68.9012 6.63883C62.2122 1.52764 53.9562 -0.0779954 48.3808 0.00289265H17.086L17.0803 0.00298081C10.6771 0.103031 6.46253 2.93184 3.82772 6.44211C1.2152 9.9227 0.168589 14.0502 0.0013227 16.8101L0 16.8319V99.1823H5.33655L5.37685 99.1778C12.386 98.388 16.7997 95.5349 19.4433 92.2246C22.068 88.9379 22.9103 85.2475 22.869 82.8067V64.0362H48.4083L48.4304 64.0348C61.1425 63.2526 69.0837 58.1452 73.813 52.0136C78.5122 45.921 79.9982 38.873 79.9216 34.2003Z" fill="url(#paint0_linear)"/>
<path fill-rule="evenodd" clip-rule="evenodd" d="M52.8553 20.9159C49.8206 18.901 46.0874 18.2595 43.5826 18.298L43.5771 18.2981H30.1138C27.2747 18.4816 25.5086 19.7631 24.4243 21.2714C23.3203 22.8072 22.9077 24.605 22.869 25.7723V45.9817H43.5661C49.8054 45.8872 53.453 43.4766 55.5264 40.5839C57.6274 37.6528 58.1688 34.1453 58.0167 31.8261L58.0144 31.7905L58.0155 31.7548C58.1994 26.2405 55.8452 22.9009 52.8553 20.9159ZM59.4603 31.7674C59.6502 25.7474 57.033 21.9559 53.6542 19.7126C50.316 17.4962 46.277 16.8131 43.5661 16.8538H30.0683L30.0458 16.8552C26.7352 17.0621 24.5758 18.5863 23.2516 20.4283C21.9478 22.2418 21.4688 24.3373 21.425 25.7381L21.4247 25.7494V47.4261H43.5769L43.5823 47.426C50.2427 47.3266 54.337 44.7226 56.7004 41.4254C59.026 38.1809 59.6213 34.3429 59.4603 31.7674Z" fill="url(#paint1_linear)"/>
<path d="M72.0264 82.7947L74.0195 102.079L67.5593 102.506C53.457 103.963 48.2891 93.9103 47.4679 88.7016L45.4994 69.6558L51.935 68.9906C66.2612 67.5099 71.2985 77.5764 72.0264 82.7947Z" stroke="url(#paint2_linear)" stroke-width="1.44436"/>
<defs>
<linearGradient id="paint0_linear" x1="1.23914e-07" y1="95.5151" x2="45.1081" y2="14.2766" gradientUnits="userSpaceOnUse">
<stop stop-color="#569139"/>
<stop offset="1" stop-color="#89DA61"/>
</linearGradient>
<linearGradient id="paint1_linear" x1="1.23914e-07" y1="95.5151" x2="45.1081" y2="14.2766" gradientUnits="userSpaceOnUse">
<stop stop-color="#569139"/>
<stop offset="1" stop-color="#89DA61"/>
</linearGradient>
<linearGradient id="paint2_linear" x1="45.6331" y1="70.9498" x2="65.3163" y2="96.0641" gradientUnits="userSpaceOnUse">
<stop stop-color="#569139"/>
<stop offset="1" stop-color="#89DA61"/>
</linearGradient>
</defs>
</svg>
