<svg width="132" height="127" viewBox="0 0 132 127" fill="none" xmlns="http://www.w3.org/2000/svg">
<path d="M184.625 6.10352e-05H26.375C24.0433 6.10352e-05 21.8071 0.926322 20.1584 2.57508C18.5096 4.22384 17.5834 6.46003 17.5834 8.79173V102.57C17.5834 104.901 18.5096 107.137 20.1584 108.786C21.8071 110.435 24.0433 111.361 26.375 111.361H184.625C186.957 111.361 189.193 110.435 190.842 108.786C192.49 107.137 193.417 104.901 193.417 102.57V8.79173C193.417 6.46003 192.49 4.22384 190.842 2.57508C189.193 0.926322 186.957 6.10352e-05 184.625 6.10352e-05ZM57.7906 58.6112V52.7501H104.679V58.6112H57.7906ZM69.5128 64.4723V70.3334H46.0684V64.4723H69.5128ZM46.0684 35.1667V29.3056H69.5128V35.1667H46.0684ZM57.7906 46.889V41.0278H139.846V46.889H57.7906ZM92.9573 23.4445H34.3461V17.5834H92.9573V23.4445ZM46.0684 76.1945H81.235V82.0556H46.0684V76.1945ZM57.7906 87.9167H157.429V93.7778H57.7906V87.9167Z" fill="#293338"/>
<path d="M0 117.222H211C211 119.787 209.981 122.247 208.167 124.061C206.354 125.874 203.894 126.893 201.329 126.893H9.67083C7.10597 126.893 4.64616 125.874 2.83252 124.061C1.01889 122.247 0 119.787 0 117.222Z" fill="#293338"/>
</svg>
