<svg width="74" height="74" viewBox="0 0 74 74" fill="none" xmlns="http://www.w3.org/2000/svg">
<path d="M62.4375 13.875C63.0508 13.875 63.639 14.1186 64.0727 14.5523C64.5064 14.986 64.75 15.5742 64.75 16.1875V50.875H9.25V16.1875C9.25 15.5742 9.49364 14.986 9.92732 14.5523C10.361 14.1186 10.9492 13.875 11.5625 13.875H62.4375ZM11.5625 9.25C9.72256 9.25 7.95798 9.98091 6.65695 11.2819C5.35591 12.583 4.625 14.3476 4.625 16.1875V55.5H69.375V16.1875C69.375 14.3476 68.6441 12.583 67.3431 11.2819C66.042 9.98091 64.2774 9.25 62.4375 9.25H11.5625ZM0 57.8125H74C74 59.6524 73.2691 61.417 71.9681 62.7181C70.667 64.0191 68.9024 64.75 67.0625 64.75H6.9375C5.09756 64.75 3.33298 64.0191 2.03195 62.7181C0.730913 61.417 0 59.6524 0 57.8125H0Z" fill="#885FDB"/>
</svg>
