<svg width="70" height="69" viewBox="0 0 70 69" fill="none" xmlns="http://www.w3.org/2000/svg">
<path d="M6.24999 14.375C6.24999 12.85 6.8558 11.3875 7.93413 10.3091C9.01246 9.2308 10.475 8.625 12 8.625H58C59.525 8.625 60.9875 9.2308 62.0659 10.3091C63.1442 11.3875 63.75 12.85 63.75 14.375V46C63.75 47.525 63.1442 48.9875 62.0659 50.0659C60.9875 51.1442 59.525 51.75 58 51.75H37.875V57.5H46.5C47.2625 57.5 47.9938 57.8029 48.5329 58.3421C49.0721 58.8812 49.375 59.6125 49.375 60.375C49.375 61.1375 49.0721 61.8688 48.5329 62.4079C47.9938 62.9471 47.2625 63.25 46.5 63.25H23.5C22.7375 63.25 22.0062 62.9471 21.4671 62.4079C20.9279 61.8688 20.625 61.1375 20.625 60.375C20.625 59.6125 20.9279 58.8812 21.4671 58.3421C22.0062 57.8029 22.7375 57.5 23.5 57.5H32.125V51.75H12C10.475 51.75 9.01246 51.1442 7.93413 50.0659C6.8558 48.9875 6.24999 47.525 6.24999 46V14.375ZM58 46V14.375H12V46H58Z" fill="#E87A6A"/>
</svg>
