<svg xmlns="http://www.w3.org/2000/svg" data-name="Layer 1" viewBox="0 0 50 40" x="0px" y="0px" width="155px" height="93px" fill="#7fc945"><path d="M37.5,13h-27A1.5,1.5,0,0,0,9,14.5v16A1.5,1.5,0,0,0,10.5,32h27A1.5,1.5,0,0,0,39,30.5v-16A1.5,1.5,0,0,0,37.5,13ZM38,30.5a.5.5,0,0,1-.5.5h-27a.5.5,0,0,1-.5-.5v-16a.51.51,0,0,1,.5-.5h27a.5.5,0,0,1,.5.5Z"/><path d="M6,33H42a0,0,0,0,1,0,0v0a1.65,1.65,0,0,1-1.65,1.65H7.65A1.65,1.65,0,0,1,6,33v0a0,0,0,0,1,0,0Z"/><rect x="24.99" y="24" width="11.01" height="1"/><rect x="24.99" y="22" width="11.01" height="1"/><rect x="24.99" y="20" width="11.01" height="1"/><rect x="24.99" y="18" width="11.01" height="1"/><rect x="24.99" y="26" width="11.01" height="1"/><rect x="24.99" y="28" width="11.01" height="1"/><rect x="11.99" y="24" width="11" height="1"/><rect x="11.99" y="22" width="11" height="1"/><rect x="11.99" y="20" width="11" height="1"/><rect x="11.99" y="18" width="11" height="1"/><rect x="11.99" y="26" width="11" height="1"/><rect x="11.99" y="28" width="11" height="1"/> </svg>