<svg xmlns="http://www.w3.org/2000/svg" data-name="Layer 1" viewBox="0 0 50 40" x="0px" y="0px" width="155px" height="93px" fill="#7fc945"><path d="M37.5,13h-27A1.5,1.5,0,0,0,9,14.5v16A1.5,1.5,0,0,0,10.5,32h27A1.5,1.5,0,0,0,39,30.5v-16A1.5,1.5,0,0,0,37.5,13ZM38,30.5a.5.5,0,0,1-.5.5h-27a.5.5,0,0,1-.5-.5v-16a.5.5,0,0,1,.5-.5h27a.5.5,0,0,1,.5.5Z"/><path d="M6,33H42a0,0,0,0,1,0,0v0a1.65,1.65,0,0,1-1.65,1.65H7.65A1.65,1.65,0,0,1,6,33v0A0,0,0,0,1,6,33Z"/><rect x="24" y="16" width="12" height="6"/><rect x="24" y="24" width="12" height="1"/><rect x="24" y="26" width="12" height="1"/><rect x="24" y="28" width="12" height="1"/><path d="M12,16V29H22V16Zm8.51.88L17,21.7l-3.51-4.82Zm-7.63.78,3.53,4.85-3.53,4.84Zm.62,10.46L17,23.31l3.5,4.81Zm7.62-.77-3.53-4.84,3.53-4.85Z"/></svg>