<svg width="15" height="15" viewBox="0 0 15 15" fill="none" xmlns="http://www.w3.org/2000/svg">
<g clip-path="url(#clip0)">
<path d="M2.09034 13.5005L0.887131 0H14.1128L12.908 13.4984L7.49195 15L2.09034 13.5005Z" fill="#1572B6"/>
<path d="M7.5 13.8525L11.8768 12.6391L12.9064 1.10413H7.5V13.8525Z" fill="#33A9DC"/>
<path d="M7.5 5.99523H9.69107L9.84214 4.29969H7.5V2.6438H11.6518L11.6121 3.08791L11.2055 7.65112H7.5V5.99523V5.99523Z" fill="white"/>
<path d="M7.51016 10.2952L7.50266 10.2974L5.65873 9.79917L5.54088 8.47864H3.87856L4.11052 11.0785L7.50213 12.0202L7.51016 12.0181V10.2952V10.2952Z" fill="#EBEBEB"/>
<path d="M9.55017 7.58081L9.35088 9.79813L7.50427 10.2963V12.0192L10.8986 11.0785L10.9237 10.7988L11.2114 7.58081H9.55017V7.58081Z" fill="white"/>
<path d="M7.5059 2.6438V4.29969H3.50626L3.47304 3.92737L3.39751 3.08791L3.35786 2.6438H7.5059V2.6438Z" fill="#EBEBEB"/>
<path d="M7.50002 5.995V7.65089H5.67912L5.64591 7.27857L5.57091 6.4391L5.53127 5.995H7.50002V5.995Z" fill="#EBEBEB"/>
</g>
<defs>
<clipPath id="clip0">
<rect width="15" height="15" fill="white"/>
</clipPath>
</defs>
</svg>
