<svg width="18" height="18" viewBox="0 0 18 18" fill="none" xmlns="http://www.w3.org/2000/svg">
<path d="M6.18749 16.9594V13.0781L3.29062 15.2156C4.10624 15.975 5.09062 16.5656 6.18749 16.9594" fill="#2A5F9E"/>
<path d="M11.8125 16.9594C12.9094 16.5656 13.8937 15.975 14.7094 15.2156L11.8125 13.05V16.9594Z" fill="#2A5F9E"/>
<path d="M1.04062 11.8125C1.12499 12.0937 1.23749 12.3469 1.37812 12.6281L2.47499 11.8125H1.04062Z" fill="#2A5F9E"/>
<path d="M15.525 11.8125L16.6219 12.6281C16.7344 12.375 16.8469 12.0937 16.9594 11.8125H15.525Z" fill="#2A5F9E"/>
<path d="M6.60937 10.6875H0.731247C0.815622 11.0813 0.928122 11.4469 1.04062 11.8125H2.475L1.37812 12.6281C1.60312 13.1063 1.85625 13.5281 2.16562 13.95L5.0625 11.8125H6.1875V12.375L2.89687 14.7938L3.29062 15.1875L6.1875 13.0781V16.9594C6.55312 17.1 6.91875 17.1844 7.3125 17.2688V10.6875H6.60937Z" fill="white"/>
<path d="M17.2688 10.6875H10.6875V17.2688C11.0813 17.1844 11.4469 17.0719 11.8125 16.9594V13.0781L14.7094 15.1875C15.1031 14.8219 15.4406 14.4281 15.7781 14.0063L12.7688 11.8125H14.6813L16.3969 13.0781C16.4813 12.9375 16.5656 12.7688 16.6219 12.6281L15.525 11.8125H16.9594C17.0719 11.4469 17.1844 11.0813 17.2688 10.6875" fill="white"/>
<path d="M2.16562 13.95C2.39062 14.2594 2.61562 14.5406 2.86874 14.8219L6.18749 12.4031V11.8406H5.06249L2.16562 13.95Z" fill="#ED4C5C"/>
<path d="M12.7969 11.8125L15.8063 14.0062C15.9188 13.8656 16.0031 13.725 16.1156 13.5844C16.1437 13.5562 16.1437 13.5281 16.1719 13.5281C16.2563 13.3875 16.3687 13.2187 16.4531 13.0781L14.6813 11.8125H12.7969Z" fill="#ED4C5C"/>
<path d="M11.8125 1.04062V4.92187L14.7094 2.78437C13.8937 2.02499 12.9094 1.43437 11.8125 1.04062Z" fill="#2A5F9E"/>
<path d="M6.18749 1.04062C5.09062 1.43437 4.10624 2.02499 3.29062 2.78437L6.18749 4.94999V1.04062Z" fill="#2A5F9E"/>
<path d="M16.9594 6.18748C16.875 5.90623 16.7625 5.65311 16.6219 5.37186L15.525 6.18748H16.9594" fill="#2A5F9E"/>
<path d="M2.47499 6.18748L1.37812 5.37186C1.26562 5.65311 1.15312 5.90623 1.04062 6.18748H2.47499Z" fill="#2A5F9E"/>
<path d="M11.3906 7.31251H17.2406C17.1562 6.91876 17.0437 6.55314 16.9312 6.18751H15.4969L16.5937 5.37189C16.3687 4.89376 16.1156 4.47189 15.8062 4.05001L12.9375 6.18751H11.8125V5.62501L15.1031 3.20626L14.7094 2.81251L11.8125 4.92189V1.04064C11.4469 0.900012 11.0812 0.815637 10.6875 0.731262V7.31251H11.3906Z" fill="white"/>
<path d="M0.731247 7.31251H7.3125V0.731262C6.91875 0.815637 6.55312 0.928137 6.1875 1.04064V4.92189L3.29062 2.81251C2.89687 3.17814 2.55937 3.57189 2.22187 3.99376L5.23125 6.18751H3.31875L1.60312 4.92189C1.51875 5.06251 1.43437 5.23126 1.37812 5.37189L2.475 6.18751H1.04062C0.928122 6.55314 0.815622 6.91876 0.731247 7.31251Z" fill="white"/>
<path d="M15.8344 4.05001C15.6094 3.74063 15.3844 3.45938 15.1312 3.17813L11.8125 5.59688V6.15938H12.9375L15.8344 4.05001" fill="#ED4C5C"/>
<path d="M5.20312 6.18749L2.22187 3.99374C2.10937 4.13437 2.025 4.27499 1.9125 4.41562C1.88437 4.44374 1.88437 4.47187 1.85625 4.47187C1.77187 4.61249 1.65937 4.78124 1.575 4.92187L3.29062 6.18749H5.20312Z" fill="#ED4C5C"/>
<path d="M17.2688 7.3125H10.6875V0.73125C10.1531 0.61875 9.59062 0.5625 9 0.5625C8.40938 0.5625 7.84687 0.61875 7.3125 0.73125V7.3125H0.73125C0.61875 7.84687 0.5625 8.40938 0.5625 9C0.5625 9.59062 0.61875 10.1531 0.73125 10.6875H7.3125V17.2688C7.84687 17.3813 8.40938 17.4375 9 17.4375C9.59062 17.4375 10.1531 17.3813 10.6875 17.2688V10.6875H17.2688C17.3813 10.1531 17.4375 9.59062 17.4375 9C17.4375 8.40938 17.3813 7.84687 17.2688 7.3125Z" fill="#ED4C5C"/>
</svg>
