<svg width="15" height="15" viewBox="0 0 15 15" fill="none" xmlns="http://www.w3.org/2000/svg">
<path fill-rule="evenodd" clip-rule="evenodd" d="M15 0H0V15H15V0ZM12.958 10.7753C13.1326 10.8416 13.3254 10.8418 13.5 10.7757L13.495 10.7762L11.093 7.5702C11.058 7.53896 11.0299 7.50067 11.0108 7.45785C10.9916 7.41503 10.9817 7.36863 10.9817 7.3217C10.9817 7.27478 10.9916 7.22838 11.0108 7.18555C11.0299 7.14273 11.058 7.10444 11.093 7.0732L12.354 5.4317L13.285 4.1962C13.121 4.13257 12.9393 4.13143 12.7744 4.19302C12.6096 4.25459 12.4731 4.37459 12.391 4.5302L10.593 6.9352L8.80501 4.5202C8.70907 4.36395 8.56222 4.24552 8.38918 4.18487C8.21615 4.12422 8.0275 4.12504 7.85501 4.1872L10.254 7.3127L7.67501 10.7727C7.84256 10.8333 8.02643 10.8307 8.19226 10.7656C8.35808 10.7004 8.4945 10.5771 8.57601 10.4187L10.5775 7.6967L10.8275 8.0302L12.5525 10.4157C12.6392 10.581 12.7834 10.709 12.958 10.7753ZM1.71101 6.2322L1.50101 7.2697L1.50001 7.2702C1.49991 7.46337 1.50107 7.65655 1.50351 7.8497C1.50939 7.8727 1.5159 7.89592 1.52247 7.91939C1.54605 8.00353 1.57051 8.09082 1.57051 8.1827C1.62604 8.89794 1.91402 9.57537 2.39051 10.1117C2.87241 10.5647 3.48522 10.8538 4.14132 10.9376C4.79742 11.0214 5.46322 10.8956 6.0435 10.5782C6.39482 10.3678 6.69382 10.0803 6.91804 9.73769C7.14226 9.39497 7.28585 9.00589 7.33801 8.5997C7.02501 8.5037 6.8545 8.5607 6.75101 8.8937C6.67153 9.22147 6.51199 9.52441 6.28668 9.77537C6.06138 10.0263 5.77734 10.2174 5.46001 10.3317C3.5025 10.9862 1.97151 9.70521 2.05801 7.5837H7.3955C7.44201 6.3957 7.2055 5.3417 6.25801 4.5972C4.64001 3.3272 2.28801 4.1807 1.71101 6.2322ZM6.8915 7.1267H2.06451L2.06101 7.1197C2.12451 5.5347 3.1555 4.4677 4.5965 4.4877C5.89101 4.4977 6.8615 5.5887 6.8915 7.1267Z" fill="#A5B8CA"/>
</svg>
