<svg width="15" height="15" viewBox="0 0 15 15" fill="none" xmlns="http://www.w3.org/2000/svg">
<path d="M13 10.2111C12.8399 10.2716 12.6632 10.2715 12.5032 10.2107C12.3432 10.1499 12.211 10.0326 12.1315 9.88106L10.5502 7.69435L10.321 7.38864L8.48634 9.88381C8.41162 10.029 8.28657 10.1421 8.13457 10.2018C7.98256 10.2615 7.81401 10.2638 7.66042 10.2083L10.0245 7.03664L7.82542 4.1716C7.98354 4.11462 8.15647 4.11386 8.31508 4.16946C8.4737 4.22506 8.60831 4.33362 8.69625 4.47685L10.3353 6.6906L11.9834 4.48602C12.0587 4.34338 12.1838 4.23338 12.3349 4.17693C12.486 4.12048 12.6525 4.12152 12.8029 4.17985L11.9495 5.31239L10.7936 6.8171C10.7615 6.84573 10.7358 6.88083 10.7182 6.92009C10.7006 6.95934 10.6915 7.00187 10.6915 7.04489C10.6915 7.08791 10.7006 7.13044 10.7182 7.16969C10.7358 7.20895 10.7615 7.24405 10.7936 7.27268L12.9954 10.2115L13 10.2111ZM2.00092 6.99722L2.19342 6.04618C2.72234 4.16564 4.87834 3.38327 6.3615 4.54743C7.23004 5.22989 7.44684 6.19606 7.40421 7.28506H2.51151C2.43221 9.22977 3.83563 10.404 5.63 9.80406C5.92089 9.69935 6.18126 9.52412 6.38779 9.29408C6.59432 9.06403 6.74057 8.78634 6.81342 8.48589C6.90829 8.18064 7.06459 8.12839 7.3515 8.21639C7.30369 8.58873 7.17207 8.94538 6.96654 9.25952C6.761 9.57365 6.48691 9.83709 6.16488 10.03C5.63295 10.321 5.02263 10.4363 4.42121 10.3595C3.81978 10.2827 3.25804 10.0177 2.8163 9.60239C2.37952 9.11078 2.11554 8.48978 2.06463 7.83414C2.06463 7.72643 2.02796 7.6256 2.00321 7.52889C2.00098 7.35183 1.99991 7.17476 2.00001 6.99768L2.00092 6.99722ZM2.51746 6.86614H6.94221C6.91471 5.45631 6.02509 4.45623 4.83846 4.44706C3.51755 4.42873 2.57246 5.40681 2.51426 6.85972L2.51746 6.86614Z" fill="#A5B8CA"/>
<rect x="0.3" y="0.3" width="14.4" height="14.4" stroke="#A5B8CA" stroke-width="0.6"/>
</svg>
