<svg width="15" height="15" viewBox="0 0 15 15" fill="none" xmlns="http://www.w3.org/2000/svg">
<g clip-path="url(#clip0)">
<path d="M10 10C11.3807 10 12.5 8.88071 12.5 7.5C12.5 6.11929 11.3807 5 10 5C8.61929 5 7.5 6.11929 7.5 7.5C7.5 8.88071 8.61929 10 10 10Z" fill="#19BCFE"/>
<path fill-rule="evenodd" clip-rule="evenodd" d="M5 15C5.66304 15 6.29893 14.7366 6.76777 14.2678C7.23661 13.7989 7.5 13.163 7.5 12.5V10H5C4.33696 10 3.70107 10.2634 3.23223 10.7322C2.76339 11.2011 2.5 11.837 2.5 12.5C2.5 13.163 2.76339 13.7989 3.23223 14.2678C3.70107 14.7366 4.33696 15 5 15Z" fill="#09CF83"/>
<path fill-rule="evenodd" clip-rule="evenodd" d="M5 10H7.5V5H5C4.33696 5 3.70107 5.26339 3.23223 5.73223C2.76339 6.20107 2.5 6.83696 2.5 7.5C2.5 8.16304 2.76339 8.79893 3.23223 9.26777C3.70107 9.73661 4.33696 10 5 10Z" fill="#A259FF"/>
<path fill-rule="evenodd" clip-rule="evenodd" d="M5 5H7.5V0H5C4.33696 0 3.70107 0.263392 3.23223 0.732233C2.76339 1.20107 2.5 1.83696 2.5 2.5C2.5 3.16304 2.76339 3.79893 3.23223 4.26777C3.70107 4.73661 4.33696 5 5 5Z" fill="#F24E1E"/>
<path fill-rule="evenodd" clip-rule="evenodd" d="M10 5H7.5V0H10C10.663 0 11.2989 0.263392 11.7678 0.732233C12.2366 1.20107 12.5 1.83696 12.5 2.5C12.5 3.16304 12.2366 3.79893 11.7678 4.26777C11.2989 4.73661 10.663 5 10 5Z" fill="#FF7262"/>
</g>
<defs>
<clipPath id="clip0">
<rect width="15" height="15" fill="white"/>
</clipPath>
</defs>
</svg>
