<svg width="15" height="15" viewBox="0 0 15 15" fill="none" xmlns="http://www.w3.org/2000/svg">
<path d="M5.625 3.75V0V3.75ZM0.625 11.25V5.625H10.625V11.25C10.625 13.75 9.375 14.375 5.625 14.375C1.875 14.375 0.625 13.75 0.625 11.25ZM10.625 5.625V7.5C10.625 7.87084 10.735 8.23335 10.941 8.5417C11.147 8.85004 11.4399 9.09036 11.7825 9.23228C12.1251 9.37419 12.5021 9.41132 12.8658 9.33897C13.2295 9.26663 13.5636 9.08805 13.8258 8.82583C14.088 8.5636 14.2666 8.22951 14.339 7.8658C14.4113 7.50208 14.3742 7.12508 14.2323 6.78247C14.0904 6.43986 13.85 6.14702 13.5417 5.941C13.2334 5.73497 12.8708 5.625 12.5 5.625H10.625ZM8.125 3.75V1.25V3.75ZM3.125 3.75V2.5V3.75Z" stroke="#A5B8CA" stroke-width="0.7"/>
</svg>
