<svg width="15" height="15" viewBox="0 0 15 15" fill="none" xmlns="http://www.w3.org/2000/svg">
<path d="M7.49207 14.6887L2.37078 13.267L1.2146 0.3H13.7854L12.6278 13.2648L7.49207 14.6887Z" stroke="#A5B8CA" stroke-width="0.6"/>
<path d="M7.50004 6.11083H5.30897L5.15789 4.41529H7.50004V2.7594H3.34825L3.38789 3.20404L3.7945 7.76672H7.50004V6.11083Z" fill="#A5B8CA"/>
<path d="M7.50003 10.411L7.49253 10.4132L5.6486 9.91551L5.53075 8.59497H3.86842L4.10039 11.1943L7.49253 12.136L7.50003 12.1339V10.411Z" fill="#A5B8CA"/>
<path d="M7.5 6.09998V7.75587H9.53892L9.34714 9.90355L7.5 10.4017V12.1246L10.8948 11.1834L10.9194 10.9037L11.3083 6.54463L11.3491 6.09998H7.5Z" fill="#A5B8CA"/>
<path d="M7.5 2.75V4.40589H11.4996L11.5328 4.03411L11.6083 3.19464L11.648 2.75H7.5Z" fill="#A5B8CA"/>
</svg>
