<svg width="15" height="15" viewBox="0 0 15 15" fill="none" xmlns="http://www.w3.org/2000/svg">
<path fill-rule="evenodd" clip-rule="evenodd" d="M0 0H15V15H0V0ZM3.94406 12.5351L5.09191 11.8404C5.31339 12.233 5.51484 12.5653 5.99806 12.5653C6.46125 12.5653 6.75334 12.3841 6.75334 11.6793V6.88647H8.16293V11.6992C8.16293 13.1592 7.30711 13.8238 6.05847 13.8238C4.93084 13.8238 4.27629 13.2398 3.944 12.535L3.94406 12.5351ZM10.0763 11.7195L8.92857 12.384H8.92851C9.34131 13.1997 10.1871 13.8239 11.496 13.8239C12.8352 13.8239 13.832 13.1292 13.832 11.8604C13.832 10.6825 13.1574 10.1589 11.9592 9.64536L11.6068 9.49436C11.0027 9.23256 10.7409 9.06129 10.7409 8.63842C10.7409 8.29612 11.0027 8.03432 11.4155 8.03432C11.8183 8.03432 12.08 8.20547 12.3217 8.63842L13.4193 7.93354C12.9561 7.11797 12.3117 6.80579 11.4156 6.80579C10.1569 6.80579 9.35144 7.61133 9.35144 8.6686C9.35144 9.81645 10.026 10.3602 11.043 10.793L11.3954 10.9442C12.0398 11.226 12.4224 11.3973 12.4224 11.8805C12.4224 12.2833 12.05 12.5753 11.4659 12.5753C10.7712 12.5753 10.3785 12.2129 10.0763 11.7195Z" fill="#A5B8CA"/>
</svg>
