<svg width="15" height="15" viewBox="0 0 15 15" fill="none" xmlns="http://www.w3.org/2000/svg">
<g clip-path="url(#clip0)">
<path d="M5.5798 11.5956C5.5798 11.5956 5.00763 11.9284 5.98701 12.041C7.17353 12.1763 7.7799 12.1569 9.08746 11.9094C9.08746 11.9094 9.43124 12.125 9.91129 12.3117C6.98017 13.5679 3.27752 12.2389 5.5798 11.5956" fill="#5382A1"/>
<path d="M5.22162 9.9563C5.22162 9.9563 4.57987 10.4314 5.55998 10.5327C6.82744 10.6635 7.82837 10.6742 9.56039 10.3407C9.56039 10.3407 9.79996 10.5835 10.1766 10.7164C6.6327 11.7527 2.6854 10.7981 5.22162 9.9563" fill="#5382A1"/>
<path d="M8.24113 7.17548C8.96338 8.00698 8.05137 8.75525 8.05137 8.75525C8.05137 8.75525 9.88523 7.80856 9.04302 6.62304C8.25643 5.51755 7.65318 4.96818 10.9188 3.07428C10.9188 3.07428 5.79288 4.35448 8.24113 7.17544" fill="#E76F00"/>
<path d="M12.1178 12.8082C12.1178 12.8082 12.5412 13.1571 11.6515 13.427C9.95958 13.9396 4.60961 14.0943 3.12339 13.4474C2.58916 13.215 3.59104 12.8925 3.90617 12.8248C4.23482 12.7535 4.42267 12.7668 4.42267 12.7668C3.82852 12.3483 0.582368 13.5887 2.7738 13.9438C8.75008 14.913 13.668 13.5075 12.1178 12.8082Z" fill="#5382A1"/>
<path d="M5.85491 8.25781C5.85491 8.25781 3.13363 8.9042 4.89127 9.13886C5.63338 9.23823 7.11279 9.21577 8.49084 9.10028C9.61705 9.00534 10.7479 8.80331 10.7479 8.80331C10.7479 8.80331 10.3508 8.97339 10.0635 9.16956C7.30003 9.89636 1.9615 9.55826 3.4984 8.8148C4.79815 8.18654 5.85496 8.25781 5.85496 8.25781" fill="#5382A1"/>
<path d="M10.7367 10.9865C13.5459 9.52674 12.247 8.12394 11.3404 8.31296C11.1182 8.35917 11.0192 8.39923 11.0192 8.39923C11.0192 8.39923 11.1017 8.27004 11.2592 8.21411C13.0527 7.58355 14.4321 10.0738 10.6802 11.0601C10.6802 11.0601 10.7237 11.0213 10.7367 10.9865" fill="#5382A1"/>
<path d="M9.04302 0.0160346C9.04302 0.0160346 10.5988 1.57239 7.56743 3.9655C5.13661 5.88524 7.01312 6.97981 7.56643 8.2304C6.1475 6.9502 5.10617 5.8232 5.8048 4.77433C6.83013 3.23457 9.67072 2.48809 9.04302 0.0159912" fill="#E76F00"/>
<path d="M6.13098 14.9421C8.82747 15.1147 12.9682 14.8463 13.0663 13.5704C13.0663 13.5704 12.8778 14.0542 10.8378 14.4383C8.53627 14.8714 5.69772 14.8208 4.01412 14.5432C4.01416 14.5432 4.35877 14.8285 6.13103 14.9421" fill="#5382A1"/>
</g>
<defs>
<clipPath id="clip0">
<rect width="11.1" height="15" fill="white" transform="translate(2)"/>
</clipPath>
</defs>
</svg>
