<svg width="16" height="16" viewBox="0 0 16 16" fill="none" xmlns="http://www.w3.org/2000/svg">
<path d="M5.5 15.075V11.625L2.925 13.525C3.65 14.2 4.525 14.725 5.5 15.075" fill="#2A5F9E"/>
<path d="M10.5 15.075C11.475 14.725 12.35 14.2 13.075 13.525L10.5 11.6V15.075Z" fill="#2A5F9E"/>
<path d="M0.925003 10.5C1 10.75 1.1 10.975 1.225 11.225L2.2 10.5H0.925003Z" fill="#2A5F9E"/>
<path d="M13.8 10.5L14.775 11.225C14.875 11 14.975 10.75 15.075 10.5H13.8Z" fill="#2A5F9E"/>
<path d="M5.87499 9.5H0.649994C0.724994 9.85 0.824994 10.175 0.924994 10.5H2.19999L1.22499 11.225C1.42499 11.65 1.64999 12.025 1.92499 12.4L4.49999 10.5H5.49999V11L2.57499 13.15L2.92499 13.5L5.49999 11.625V15.075C5.82499 15.2 6.14999 15.275 6.49999 15.35V9.5H5.87499Z" fill="white"/>
<path d="M15.35 9.5H9.5V15.35C9.85 15.275 10.175 15.175 10.5 15.075V11.625L13.075 13.5C13.425 13.175 13.725 12.825 14.025 12.45L11.35 10.5H13.05L14.575 11.625C14.65 11.5 14.725 11.35 14.775 11.225L13.8 10.5H15.075C15.175 10.175 15.275 9.85 15.35 9.5" fill="white"/>
<path d="M1.925 12.4C2.125 12.675 2.325 12.925 2.55 13.175L5.5 11.025V10.525H4.5L1.925 12.4Z" fill="#ED4C5C"/>
<path d="M11.375 10.5L14.05 12.45C14.15 12.325 14.225 12.2 14.325 12.075C14.35 12.05 14.35 12.025 14.375 12.025C14.45 11.9 14.55 11.75 14.625 11.625L13.05 10.5H11.375Z" fill="#ED4C5C"/>
<path d="M10.5 0.924988V4.37499L13.075 2.47499C12.35 1.79999 11.475 1.27499 10.5 0.924988Z" fill="#2A5F9E"/>
<path d="M5.5 0.924988C4.525 1.27499 3.65 1.79999 2.925 2.47499L5.5 4.39999V0.924988Z" fill="#2A5F9E"/>
<path d="M15.075 5.49999C15 5.24999 14.9 5.02499 14.775 4.77499L13.8 5.49999H15.075" fill="#2A5F9E"/>
<path d="M2.2 5.49999L1.225 4.77499C1.125 5.02499 1.025 5.24999 0.925003 5.49999H2.2Z" fill="#2A5F9E"/>
<path d="M10.125 6.49999H15.325C15.25 6.14999 15.15 5.82499 15.05 5.49999H13.775L14.75 4.77499C14.55 4.34999 14.325 3.97499 14.05 3.59999L11.5 5.49999H10.5V4.99999L13.425 2.84999L13.075 2.49999L10.5 4.37499V0.924994C10.175 0.799994 9.85 0.724994 9.5 0.649994V6.49999H10.125Z" fill="white"/>
<path d="M0.649994 6.49999H6.49999V0.649994C6.14999 0.724994 5.82499 0.824994 5.49999 0.924994V4.37499L2.92499 2.49999C2.57499 2.82499 2.27499 3.17499 1.97499 3.54999L4.64999 5.49999H2.94999L1.42499 4.37499C1.34999 4.49999 1.27499 4.64999 1.22499 4.77499L2.19999 5.49999H0.924994C0.824994 5.82499 0.724994 6.14999 0.649994 6.49999Z" fill="white"/>
<path d="M14.075 3.60001C13.875 3.32501 13.675 3.07501 13.45 2.82501L10.5 4.97501V5.47501H11.5L14.075 3.60001" fill="#ED4C5C"/>
<path d="M4.62499 5.49999L1.97499 3.54999C1.87499 3.67499 1.79999 3.79999 1.69999 3.92499C1.67499 3.94999 1.67499 3.97499 1.64999 3.97499C1.57499 4.09999 1.47499 4.24999 1.39999 4.37499L2.92499 5.49999H4.62499Z" fill="#ED4C5C"/>
<path d="M15.35 6.5H9.5V0.65C9.025 0.55 8.525 0.5 8 0.5C7.475 0.5 6.975 0.55 6.5 0.65V6.5H0.65C0.55 6.975 0.5 7.475 0.5 8C0.5 8.525 0.55 9.025 0.65 9.5H6.5V15.35C6.975 15.45 7.475 15.5 8 15.5C8.525 15.5 9.025 15.45 9.5 15.35V9.5H15.35C15.45 9.025 15.5 8.525 15.5 8C15.5 7.475 15.45 6.975 15.35 6.5Z" fill="#ED4C5C"/>
</svg>
