<svg width="15" height="15" viewBox="0 0 15 15" fill="none" xmlns="http://www.w3.org/2000/svg">
<g clip-path="url(#clip0)">
<path d="M7.815 0C7.71813 0 7.61813 0.005 7.515 0.013125C4.87375 0.22125 5.57438 3.0175 5.53375 3.94937C5.48625 4.63187 5.34625 5.17 4.8775 5.83687C4.32438 6.49375 3.54813 7.55562 3.18 8.6625C3.00625 9.1825 2.92375 9.715 3.00063 10.2181C2.97212 10.2412 2.94871 10.2699 2.93188 10.3025C2.76938 10.47 2.65063 10.6775 2.5175 10.8269C2.39313 10.9512 2.21438 10.9937 2.01938 11.0769C1.82375 11.1619 1.60813 11.245 1.47938 11.5019C1.42313 11.62 1.39438 11.7481 1.39688 11.8781C1.39688 12.0025 1.41375 12.1281 1.43125 12.2131C1.4675 12.4625 1.50375 12.6681 1.45625 12.8194C1.30063 13.2444 1.28125 13.535 1.39 13.7469C1.49875 13.9556 1.72438 14.0406 1.9775 14.1225C2.48375 14.2475 3.17125 14.2069 3.71125 14.4975C4.29 14.7887 4.8775 14.9163 5.34625 14.7913C5.675 14.7188 5.9525 14.5012 6.10125 14.2C6.46813 14.1981 6.87 14.0319 7.51375 13.9912C7.95063 13.955 8.4975 14.1581 9.12438 14.1163C9.14 14.2 9.16375 14.24 9.19563 14.3244L9.1975 14.3263C9.44188 14.8125 9.89313 15.0338 10.375 14.9956C10.8569 14.9581 11.37 14.6606 11.7856 14.1794C12.18 13.7013 12.8375 13.5019 13.2719 13.24C13.4894 13.1156 13.665 12.9469 13.6775 12.7069C13.6919 12.4569 13.5525 12.2 13.2313 11.8469V11.7862L13.2294 11.7844C13.1231 11.6594 13.0731 11.45 13.0181 11.2056C12.965 10.955 12.9044 10.7144 12.7106 10.5519H12.7088C12.6719 10.5181 12.6319 10.51 12.5913 10.4675C12.5563 10.4431 12.5151 10.4292 12.4725 10.4275C12.7419 9.62875 12.6375 8.83375 12.3644 8.11875C12.0313 7.2375 11.4488 6.47 11.005 5.94187C10.5075 5.31375 10.02 4.71875 10.03 3.83687C10.0463 2.49187 10.1775 0.00375 7.815 0V0ZM8.14563 2.12812H8.15375C8.28688 2.12812 8.40125 2.16687 8.51875 2.25187C8.6375 2.33625 8.725 2.45938 8.7925 2.585C8.85813 2.74688 8.89125 2.87188 8.89625 3.0375C8.89625 3.025 8.9 3.0125 8.9 3V3.06563C8.89863 3.06137 8.89779 3.05696 8.8975 3.0525L8.895 3.0375C8.89374 3.18939 8.86186 3.33947 8.80125 3.47875C8.77207 3.55711 8.72671 3.62845 8.66813 3.68813C8.65042 3.67812 8.63204 3.66935 8.61313 3.66188C8.54813 3.63375 8.48938 3.62187 8.43563 3.57875C8.39109 3.56101 8.34508 3.5472 8.29813 3.5375C8.32938 3.5 8.38938 3.45437 8.4125 3.41375C8.44563 3.33375 8.46375 3.24875 8.4675 3.1625V3.15C8.46892 3.06512 8.45603 2.9806 8.42938 2.9C8.40125 2.81625 8.36625 2.775 8.315 2.69188C8.2625 2.65063 8.21063 2.60938 8.14813 2.60938H8.13813C8.08 2.60938 8.02813 2.62813 7.97438 2.69188C7.91502 2.74976 7.87099 2.8215 7.84625 2.90062C7.81306 2.98004 7.79402 3.06465 7.79 3.15062V3.1625C7.79125 3.21812 7.795 3.27438 7.8025 3.32938C7.68188 3.2875 7.52875 3.245 7.42313 3.20312C7.41682 3.16173 7.41306 3.11998 7.41188 3.07813V3.06563C7.40697 2.90064 7.439 2.73664 7.50563 2.58563C7.5567 2.44837 7.65103 2.33145 7.77438 2.2525C7.88122 2.17152 8.01157 2.12763 8.14563 2.1275V2.12812ZM6.29438 2.165H6.31688C6.40563 2.165 6.48563 2.195 6.56625 2.24937C6.6575 2.33 6.73125 2.42938 6.78125 2.54C6.8375 2.66438 6.86875 2.79 6.87688 2.95687V2.95938C6.88125 3.04313 6.88063 3.08437 6.87563 3.12562V3.17562C6.85688 3.18 6.84063 3.18688 6.82375 3.19063C6.72875 3.225 6.6525 3.275 6.57813 3.31562C6.58563 3.25937 6.58625 3.20313 6.58 3.14875V3.13937C6.5725 3.05625 6.555 3.01438 6.52875 2.93125C6.50926 2.86755 6.4735 2.81003 6.425 2.76437C6.4096 2.75037 6.39153 2.73961 6.37188 2.73274C6.35223 2.72586 6.3314 2.72302 6.31063 2.72438H6.2975C6.25313 2.72813 6.21625 2.74938 6.18125 2.80688C6.14138 2.85526 6.11545 2.91361 6.10625 2.97563C6.08936 3.04299 6.08449 3.11281 6.09188 3.18188V3.19125C6.09938 3.27562 6.115 3.31625 6.14188 3.4C6.17063 3.48375 6.20313 3.525 6.24563 3.5675C6.25188 3.57313 6.25813 3.57875 6.26688 3.5825C6.22313 3.61812 6.19375 3.62625 6.15688 3.6675C6.13349 3.68818 6.10537 3.70277 6.075 3.71C6.01003 3.63177 5.95249 3.54766 5.90313 3.45875C5.84404 3.32741 5.81113 3.18581 5.80625 3.04188C5.7959 2.90079 5.81288 2.75903 5.85625 2.62437C5.89068 2.50157 5.95099 2.38756 6.03313 2.29C6.11313 2.20688 6.19563 2.165 6.29438 2.165V2.165ZM7.15063 3.23125C7.35813 3.23125 7.60875 3.27187 7.91063 3.48062C8.09375 3.60562 8.2375 3.64875 8.56813 3.77313H8.57C8.72938 3.85813 8.82313 3.93937 8.86875 4.0225V3.94062C8.89118 3.98607 8.90367 4.03577 8.9054 4.08642C8.90712 4.13707 8.89804 4.18751 8.87875 4.23438C8.80188 4.42813 8.55625 4.63625 8.21438 4.76063V4.76187C8.04688 4.84625 7.90125 4.97 7.73 5.0525C7.5575 5.13687 7.3625 5.235 7.0975 5.21937C7.00231 5.2243 6.90709 5.21006 6.8175 5.1775C6.74828 5.13984 6.6811 5.09853 6.61625 5.05375C6.49438 4.96938 6.38938 4.84625 6.23375 4.76312V4.76H6.23063C5.98063 4.60625 5.84563 4.44 5.80188 4.31625C5.75813 4.14875 5.79875 4.0225 5.9225 3.94125C6.0625 3.85688 6.16 3.77187 6.22438 3.73125C6.28938 3.685 6.31375 3.6675 6.33438 3.64938H6.33563V3.6475C6.44125 3.52125 6.60813 3.35375 6.86 3.27188C6.94688 3.24938 7.04375 3.23125 7.15125 3.23125H7.15063ZM8.90063 4.57C9.12438 5.45562 9.64813 6.74187 9.985 7.36562C10.1638 7.69937 10.5194 8.4025 10.6738 9.25563C10.7713 9.2525 10.88 9.26688 10.9944 9.29563C11.3981 8.25125 10.6531 7.12875 10.3138 6.81687C10.1763 6.69187 10.1688 6.6075 10.2369 6.6075C10.6056 6.94125 11.09 7.59 11.2656 8.33063C11.3469 8.665 11.3656 9.02062 11.2788 9.37437C11.3206 9.39187 11.3631 9.41187 11.4069 9.41625C12.0519 9.75 12.29 10.0025 12.1756 10.3769V10.35C12.1381 10.3481 12.1006 10.35 12.0631 10.35H12.0531C12.1475 10.0581 11.9394 9.83438 11.3875 9.585C10.8156 9.335 10.3588 9.375 10.2813 9.87562C10.2763 9.9025 10.2731 9.91687 10.27 9.96C10.2275 9.97437 10.1831 9.99313 10.1394 10C9.87063 10.1675 9.72563 10.4181 9.64375 10.7419C9.5625 11.075 9.5375 11.4644 9.51563 11.91V11.9119C9.50313 12.1206 9.40938 12.4356 9.31625 12.7556C8.37875 13.4256 7.07875 13.7169 5.97375 12.9644C5.90441 12.8432 5.81998 12.7312 5.7225 12.6312C5.67592 12.5537 5.61799 12.4835 5.55063 12.4231C5.66438 12.4231 5.76188 12.4044 5.84125 12.3812C5.93113 12.3396 6.00143 12.2648 6.0375 12.1725C6.105 12.0056 6.0375 11.7369 5.82188 11.4456C5.60625 11.1537 5.24 10.8237 4.70438 10.495C4.31063 10.245 4.08813 9.95125 3.98563 9.6225C3.8825 9.28875 3.89625 8.94438 3.97625 8.59438C4.12938 7.92563 4.52188 7.27562 4.7725 6.8675C4.83938 6.82687 4.79563 6.95187 4.5175 7.47625C4.27 7.94562 3.805 9.03687 4.44125 9.885C4.46528 9.26619 4.60233 8.65699 4.84563 8.0875C5.19813 7.28875 5.935 5.8975 5.99313 4.795C6.02313 4.8175 6.12875 4.87938 6.17375 4.92125C6.31 5.00438 6.41125 5.12937 6.5425 5.21187C6.67375 5.3375 6.84063 5.42125 7.09 5.42125C7.11438 5.42312 7.13688 5.425 7.15875 5.425C7.41625 5.425 7.615 5.34125 7.78188 5.2575C7.96313 5.17375 8.10688 5.04875 8.24438 5.0075H8.2475C8.53938 4.92313 8.76938 4.75625 8.9 4.57H8.90063ZM10.2663 10.1688C10.2894 10.5438 10.4806 10.9469 10.8175 11.0294C11.185 11.1131 11.7138 10.8212 11.9369 10.5512L12.0688 10.545C12.2656 10.5406 12.4294 10.5512 12.5981 10.7125L12.6 10.7144C12.73 10.8387 12.7906 11.0456 12.8444 11.2619C12.8975 11.5119 12.9406 11.7494 13.1 11.9281C13.4038 12.2575 13.5031 12.4944 13.4975 12.6406L13.4994 12.6363V12.6475L13.4975 12.64C13.4881 12.8038 13.3819 12.8875 13.1863 13.0119C12.7925 13.2625 12.095 13.4569 11.6506 13.9931C11.2644 14.4537 10.7944 14.7056 10.3781 14.7375C9.96313 14.7706 9.605 14.6125 9.39438 14.1762L9.39125 14.1744C9.26 13.9244 9.31625 13.5338 9.42625 13.1181C9.53625 12.7006 9.69375 12.2781 9.71563 11.9325C9.73875 11.4862 9.76313 11.0981 9.8375 10.7987C9.9125 10.5081 10.03 10.3006 10.2381 10.1838L10.2663 10.17V10.1688ZM3.5075 10.1994H3.51375C3.54688 10.1994 3.57938 10.2025 3.61188 10.2081C3.84688 10.2425 4.05313 10.4162 4.25125 10.6781L4.82 11.7181L4.82188 11.72C4.97375 12.0531 5.29313 12.385 5.565 12.7431C5.83625 13.1169 6.04625 13.45 6.02063 13.7244V13.7281C5.985 14.1931 5.72063 14.4456 5.3175 14.5369C4.91438 14.6213 4.3675 14.5381 3.82063 14.2469C3.21563 13.9119 2.49688 13.9538 2.035 13.8706C1.80438 13.8294 1.65375 13.7456 1.58313 13.6206C1.51438 13.4956 1.5125 13.2444 1.66 12.8519V12.8494L1.66125 12.8475C1.73438 12.6387 1.68 12.3775 1.64438 12.1487C1.61 11.8981 1.5925 11.705 1.67125 11.5612C1.77125 11.3525 1.91875 11.3113 2.1025 11.2281C2.28625 11.1438 2.5025 11.1019 2.67438 10.9344H2.67563V10.9331C2.83563 10.7656 2.95375 10.5575 3.09313 10.4094C3.21188 10.2838 3.33063 10.1994 3.5075 10.1994V10.1994ZM7.98188 4.52812C7.71 4.65375 7.39125 4.8625 7.05188 4.8625C6.71313 4.8625 6.44563 4.69563 6.25188 4.57125C6.15563 4.4875 6.07688 4.40375 6.01875 4.36188C5.91625 4.27813 5.92875 4.15375 5.9725 4.15375C6.04063 4.16375 6.05313 4.2375 6.09688 4.27875C6.15688 4.32 6.23125 4.40375 6.32188 4.48687C6.50438 4.61187 6.74688 4.77875 7.05125 4.77875C7.35438 4.77875 7.70938 4.61187 7.925 4.4875C8.04688 4.40312 8.20313 4.27875 8.33 4.19562C8.4275 4.11062 8.42313 4.02875 8.50438 4.02875C8.58438 4.03875 8.52563 4.1125 8.4125 4.23625C8.27387 4.34109 8.12993 4.43872 7.98125 4.52875L7.98188 4.52812ZM7.30563 3.53875V3.525C7.30188 3.5125 7.31375 3.49875 7.32375 3.49375C7.37 3.46688 7.43625 3.47687 7.48625 3.49625C7.52563 3.49625 7.58625 3.53813 7.58 3.58063C7.57625 3.61125 7.52688 3.62188 7.49563 3.62188C7.46125 3.62188 7.43813 3.595 7.4075 3.57938C7.375 3.56813 7.31625 3.57438 7.30563 3.53875ZM6.96125 3.53875C6.94875 3.575 6.89063 3.56938 6.8575 3.58C6.82813 3.59563 6.80375 3.6225 6.77 3.6225C6.73875 3.6225 6.68875 3.61 6.685 3.58C6.67875 3.53875 6.74 3.49687 6.77875 3.49687C6.82875 3.4775 6.89375 3.4675 6.94063 3.49375C6.9525 3.49938 6.96313 3.5125 6.95938 3.525V3.5375H6.96125V3.53875Z" fill="#A5B8CA"/>
</g>
<defs>
<clipPath id="clip0">
<rect width="15" height="15" fill="white"/>
</clipPath>
</defs>
</svg>
