<svg width="17" height="15" viewBox="0 0 17 15" fill="none" xmlns="http://www.w3.org/2000/svg">
<g clip-path="url(#clip0)">
<path opacity="0.26" d="M1.97259 9.51202L1.96985 6.30502V5.34463H0.00152206V0L8.30187 0.0391304L10.8984 0.0446739C14.0058 0.0446739 16.6972 2.39543 16.6972 5.50011V14.9674H7.77139C4.66678 14.9674 1.97259 12.6138 1.97259 9.51196V9.51202Z" fill="black"/>
<path d="M15.5043 12.4915V5.60843C15.5043 3.30887 13.4877 1.44476 10.9995 1.44476H8.41688V1.43921L1.4323 1.40869V3.92008H2.50447C3.25291 3.92008 3.3851 4.43674 3.3851 5.15184L3.39064 9.59178C3.39064 11.8913 5.4073 13.7554 7.89273 13.7554H14.0293C14.8159 13.7554 15.5044 13.2572 15.5044 12.4915L15.5043 12.4915Z" fill="url(#paint0_linear)"/>
<path opacity="0.175" d="M14.8953 13.073C13.3259 11.9916 12.2145 10.7493 11.2782 9.10481C9.43265 5.69551 9.86419 4.00305 5.29388 3.60399C3.97499 3.60399 3.0971 3.31207 1.70882 3.31207V3.79553C1.70882 3.79553 2.25743 4.07401 2.73965 4.07401C3.45873 4.07401 3.58349 4.57279 3.58349 5.25986L3.58806 9.51529C3.58806 11.7248 5.5286 13.5155 7.9166 13.5155H13.8096C14.2422 13.5155 14.6308 13.345 14.8953 13.073V13.073Z" fill="url(#paint1_linear)"/>
<path d="M9.43362 4.02489C8.8736 4.02489 8.37606 4.2328 7.97628 4.63663C7.57669 5.04032 7.36688 5.54419 7.36688 6.11289V8.98754H8.67071V6.11282C8.67071 5.89487 8.7418 5.72445 8.89747 5.56721C9.0536 5.40952 9.21899 5.33811 9.43362 5.33811C9.65282 5.33811 9.81567 5.40919 9.97219 5.56721C10.1278 5.72439 10.1989 5.89487 10.1989 6.11282V8.98747H11.5028V6.11282C11.5028 5.89487 11.5739 5.72445 11.7295 5.56721C11.8861 5.40913 12.0489 5.33811 12.2681 5.33811C12.4828 5.33811 12.6481 5.40952 12.8043 5.56721C12.9599 5.72439 13.031 5.89487 13.031 6.11282L13.0381 9.47165C13.0381 10.1882 12.3558 10.792 11.4792 10.792L7.27473 10.7755C6.5983 10.7755 6.02047 10.117 6.02047 9.27091V2.9458H4.78754V9.51424C4.78754 10.2111 5.04254 10.8223 5.53865 11.3165C5.96269 11.735 6.47262 11.9827 7.04562 12.044V12.0676H11.7272C12.4465 12.0676 13.0786 11.8001 13.5885 11.281H13.5908C14.0245 10.8355 14.278 10.3017 14.3395 9.70082L14.3348 6.11289C14.3348 5.54419 14.125 5.04032 13.7254 4.63663C13.3257 4.2328 12.8281 4.02489 12.2681 4.02489C11.7184 4.02489 11.2374 4.22928 10.8485 4.60356C10.4607 4.22987 9.98308 4.02489 9.43362 4.02489V4.02489Z" fill="black" fill-opacity="0.08"/>
<path d="M9.32954 4.05913C8.76951 4.05913 8.27191 4.26704 7.87212 4.67087C7.47254 5.07456 7.26273 5.57843 7.26273 6.14713V9.02171H8.56656V6.14713C8.56656 5.92917 8.63765 5.75876 8.79332 5.60152C8.94945 5.44382 9.11484 5.37241 9.32954 5.37241C9.54867 5.37241 9.71158 5.4435 9.86804 5.60152C10.0237 5.75869 10.0948 5.92917 10.0948 6.14713V9.02171H11.3986V6.14713C11.3986 5.92917 11.4697 5.75876 11.6254 5.60152C11.7819 5.44343 11.9448 5.37241 12.1639 5.37241C12.3786 5.37241 12.544 5.44382 12.7001 5.60152C12.8558 5.75869 12.9269 5.92917 12.9269 6.14713L12.934 9.50595C12.934 10.2225 12.2516 10.8263 11.375 10.8263L7.17058 10.8098C6.49414 10.8098 5.91638 10.1513 5.91638 9.30521V2.98004H4.68338V9.54848C4.68338 10.2454 4.93838 10.8565 5.43449 11.3507C5.85854 11.7693 6.36854 12.0406 6.94147 12.1019H11.623C12.3424 12.1019 12.9745 11.8343 13.4843 11.3153H13.4867C13.9204 10.8697 14.1738 10.3359 14.2354 9.73506L14.2308 6.14713C14.2308 5.57843 14.0209 5.0745 13.6213 4.67087C13.2215 4.26704 12.7239 4.05913 12.1639 4.05913C11.6143 4.05913 11.1333 4.26352 10.7444 4.6378C10.3566 4.26411 9.87893 4.05913 9.32954 4.05913V4.05913Z" fill="white"/>
<path opacity="0.3" d="M8.56277 10.8142V12.1019H11.6253C12.3447 12.1019 12.973 11.8336 13.4828 11.3145H13.4872C13.9209 10.869 14.1738 10.3362 14.2354 9.73534V9.00452H12.9348V9.50473C12.9348 10.2213 12.2539 10.8229 11.3774 10.8229L8.56277 10.8142V10.8142Z" fill="#52A800"/>
<path d="M7.85191 14.7086C4.8881 14.7086 2.31619 12.4618 2.31619 9.5007L2.31358 5.90527V4.98844H0.434471V0.420288L8.35819 0.457592L10.8368 0.462875C13.8033 0.462875 16.3725 2.70701 16.3725 5.67074V14.7086H7.85191ZM15.1653 12.2842V5.67074C15.1653 3.46131 13.2276 1.67031 10.8369 1.67031H8.35558V1.66496L1.64458 1.63561V3.78114H2.39634C2.90673 3.78114 3.52088 4.26074 3.52088 4.96457L3.52623 9.49803C3.52623 11.7075 5.46384 13.4985 7.85184 13.4985H13.7479C14.5038 13.4985 15.1653 13.0198 15.1653 12.2842Z" fill="white"/>
</g>
<defs>
<linearGradient id="paint0_linear" x1="2.77534" y1="2.98413" x2="10.0805" y2="10.9946" gradientUnits="userSpaceOnUse">
<stop stop-color="#C7F994"/>
<stop offset="1" stop-color="#87CF3E"/>
</linearGradient>
<linearGradient id="paint1_linear" x1="4.32118" y1="12.4684" x2="8.82279" y2="5.40999" gradientUnits="userSpaceOnUse">
<stop stop-color="#3D3D3D"/>
<stop offset="1" stop-opacity="0.114"/>
</linearGradient>
<clipPath id="clip0">
<rect width="16.6977" height="15" fill="white"/>
</clipPath>
</defs>
</svg>
