<svg width="15" height="15" viewBox="0 0 15 15" fill="none" xmlns="http://www.w3.org/2000/svg">
<path d="M13.8081 11.5602C12.9926 11.5396 12.3606 11.6224 11.8305 11.8502C11.6776 11.9123 11.4329 11.9124 11.4125 12.1092C11.4941 12.192 11.5043 12.3267 11.5756 12.4405C11.6981 12.6476 11.912 12.9273 12.1057 13.0723C12.3198 13.238 12.5339 13.4036 12.7581 13.5486C13.1557 13.7972 13.6043 13.9421 13.9916 14.1907C14.216 14.3356 14.4401 14.5221 14.6644 14.6774C14.7765 14.7602 14.8478 14.8949 14.9906 14.9467V14.9157C14.9192 14.8224 14.8988 14.6878 14.8275 14.5842C14.7257 14.4807 14.6236 14.3874 14.5216 14.2839C14.226 13.8801 13.8591 13.5279 13.4615 13.238C13.1354 13.0101 12.4217 12.6995 12.2892 12.3162C12.2892 12.3162 12.279 12.3059 12.2688 12.2956C12.4931 12.2749 12.7581 12.192 12.9722 12.1299C13.3188 12.0366 13.6348 12.0574 13.9916 11.9642C14.1547 11.9227 14.3178 11.8709 14.4809 11.8192V11.726C14.2975 11.5396 14.1649 11.2911 13.9712 11.115C13.4513 10.6592 12.8804 10.214 12.2892 9.84119C11.9732 9.63404 11.5654 9.4994 11.229 9.32339C11.1068 9.26119 10.9028 9.23017 10.8315 9.1266C10.648 8.89881 10.546 8.59851 10.4135 8.32922C10.118 7.75958 9.8325 7.12791 9.57762 6.52732C9.39423 6.12339 9.28209 5.71946 9.0578 5.34672C8.00783 3.58619 6.86612 2.51952 5.11282 1.47351C4.73561 1.25607 4.28709 1.16285 3.80798 1.04898C3.55323 1.03857 3.2983 1.01791 3.04348 1.0075C2.88036 0.934995 2.71724 0.738269 2.57451 0.645055C1.99358 0.272198 0.494975 -0.535481 0.0668451 0.531186C-0.208418 1.20428 0.474644 1.86702 0.70901 2.20886C0.882442 2.44702 1.10662 2.71625 1.22895 2.98553C1.30032 3.16148 1.32065 3.34803 1.39202 3.5344C1.55519 3.98994 1.708 4.4975 1.92215 4.92214C2.0343 5.13958 2.15658 5.36738 2.29931 5.56416C2.38087 5.67803 2.52354 5.72988 2.55418 5.91625C2.41151 6.12339 2.40126 6.4341 2.31964 6.69297C1.95268 7.86321 2.09547 9.31303 2.61529 10.1726C2.77835 10.4314 3.16576 11.0011 3.68564 10.7836C4.14442 10.5972 4.04247 10.0069 4.17489 9.4891C4.20559 9.3647 4.1852 9.28196 4.24631 9.1991V9.21988C4.38904 9.50976 4.53171 9.78946 4.66424 10.0794C4.98029 10.5868 5.5307 11.115 5.98941 11.4671C6.23415 11.6534 6.42779 11.9745 6.73364 12.0884V12.0573H6.71319C6.65202 11.9641 6.56027 11.9227 6.47877 11.8502C6.29532 11.6639 6.09136 11.436 5.94869 11.2289C5.52062 10.6489 5.14335 10.0068 4.80697 9.34404C4.64391 9.02309 4.50112 8.67095 4.36865 8.34994C4.30742 8.22553 4.30742 8.03922 4.20553 7.97714C4.0526 8.20494 3.82837 8.40172 3.71623 8.68131C3.52264 9.1266 3.50219 9.67547 3.43083 10.245C3.39005 10.2555 3.41038 10.245 3.38999 10.2658C3.06387 10.1829 2.95173 9.84119 2.82933 9.55119C2.52348 8.81595 2.4725 7.63535 2.73763 6.78619C2.809 6.56869 3.11484 5.88523 2.99251 5.67809C2.93134 5.48131 2.72738 5.36738 2.61529 5.21208C2.48282 5.01529 2.34003 4.76684 2.24833 4.54928C2.00365 3.96934 1.88131 3.32726 1.6163 2.74732C1.49396 2.47803 1.27999 2.19851 1.10662 1.94994C0.912967 1.67035 0.698874 1.47351 0.54595 1.14214C0.495033 1.02827 0.42361 0.841841 0.50517 0.717555C0.52556 0.634698 0.566281 0.603686 0.647899 0.582971C0.780433 0.468983 1.15765 0.613983 1.29007 0.676126C1.66728 0.831364 1.98326 0.976483 2.29931 1.19392C2.44198 1.2975 2.5949 1.49428 2.77835 1.54607H2.99245C3.31869 1.61851 3.68559 1.56678 3.99143 1.65994C4.53177 1.83595 5.02101 2.09488 5.45939 2.37452C6.79481 3.23404 7.89563 4.45607 8.63986 5.91625C8.7622 6.15434 8.81312 6.37196 8.92526 6.62041C9.13942 7.12791 9.40443 7.64571 9.6184 8.14279C9.8325 8.62946 10.0363 9.1266 10.3422 9.53053C10.4951 9.74791 11.1067 9.8619 11.3819 9.97583C11.5858 10.069 11.9019 10.1519 12.0853 10.2658C12.4319 10.4832 12.7785 10.7318 13.1047 10.9699C13.2678 11.0942 13.7775 11.3532 13.8081 11.5602Z" fill="#A5B8CA"/>
<path d="M3.40949 2.56085C3.23623 2.56085 3.11395 2.58169 2.99161 2.6127V2.63341H3.012C3.09362 2.79913 3.23623 2.91305 3.33812 3.058C3.41974 3.22365 3.49105 3.38942 3.57267 3.55514C3.5828 3.54472 3.593 3.53442 3.593 3.53442C3.73579 3.43079 3.80709 3.26514 3.80709 3.01657C3.74592 2.94413 3.73573 2.87163 3.68475 2.79913C3.62364 2.6955 3.49105 2.64377 3.40949 2.56085Z" fill="#A5B8CA"/>
</svg>
