<svg width="15" height="15" viewBox="0 0 15 15" fill="none" xmlns="http://www.w3.org/2000/svg">
<path d="M7.49987 15C7.29751 15.0001 7.09869 14.9469 6.92343 14.8457L5.08912 13.7598C4.81536 13.6066 4.94875 13.5525 5.03929 13.5209C5.33045 13.4309 5.60922 13.3049 5.86913 13.1459C5.89088 13.1358 5.91485 13.1314 5.93875 13.1332C5.96266 13.135 5.98572 13.1429 6.00574 13.1561L7.41523 13.9934C7.44147 14.0072 7.4707 14.0145 7.5004 14.0145C7.53009 14.0145 7.55933 14.0072 7.58558 13.9934L13.082 10.8208C13.1078 10.8055 13.1291 10.7836 13.1439 10.7575C13.1585 10.7314 13.1663 10.7019 13.1662 10.6719V4.32574C13.1663 4.29528 13.1584 4.26534 13.1434 4.23879C13.1285 4.21222 13.107 4.18996 13.081 4.17414L7.58451 1.00427C7.55859 0.989672 7.52934 0.982004 7.4996 0.982004C7.46985 0.982004 7.44061 0.989672 7.41469 1.00427L1.92139 4.17521C1.89519 4.1907 1.87343 4.21271 1.85823 4.23907C1.84303 4.26545 1.83489 4.2953 1.8346 4.32574V10.6692C1.83468 10.6991 1.8427 10.7285 1.85787 10.7542C1.87303 10.7801 1.89477 10.8014 1.92085 10.816L3.42838 11.6861C4.24535 12.0943 4.74572 11.6132 4.74572 11.1299V4.86682C4.74572 4.8242 4.76265 4.78332 4.7928 4.75318C4.82294 4.72304 4.86381 4.70611 4.90643 4.70611H5.60287C5.6455 4.70611 5.68638 4.72304 5.71652 4.75318C5.74666 4.78332 5.76359 4.8242 5.76359 4.86682V11.1304C5.76359 12.2207 5.17002 12.8448 4.13607 12.8448C3.69002 12.8525 3.25096 12.7333 2.87016 12.5009L1.42532 11.6721C1.24992 11.5699 1.10437 11.4236 1.00323 11.2476C0.902076 11.0716 0.848857 10.8722 0.848881 10.6692V4.32574C0.848359 4.12245 0.901353 3.92261 1.00254 3.74628C1.10372 3.56997 1.24953 3.42339 1.42532 3.32127L6.92236 0.14765C7.09943 0.050775 7.29802 0 7.49987 0C7.7017 0 7.9003 0.050775 8.07737 0.14765L13.5738 3.32127C13.7492 3.42321 13.8948 3.56937 13.9961 3.74516C14.0973 3.92095 14.1507 4.12021 14.1509 4.32306V10.6692C14.1506 10.8722 14.0971 11.0716 13.9959 11.2475C13.8947 11.4235 13.7492 11.5698 13.5738 11.6721L8.07737 14.8457C7.90178 14.9471 7.70258 15.0002 7.49987 15Z" fill="#A5B8CA"/>
<path d="M6.45735 8.54609C6.45735 8.50346 6.47428 8.46258 6.50442 8.43244C6.53457 8.4023 6.57544 8.38537 6.61807 8.38537H7.32897C7.36695 8.38549 7.40367 8.39907 7.4326 8.42368C7.46153 8.4483 7.4808 8.48236 7.48701 8.51984C7.59415 9.2436 7.91559 9.60842 9.369 9.60842C10.5267 9.60842 11.0201 9.34646 11.0201 8.73198C11.0201 8.37787 10.8803 8.11483 9.08078 7.93858C7.57647 7.78965 6.64646 7.45642 6.64646 6.25427C6.64646 5.14532 7.58129 4.4837 9.14828 4.4837C10.9092 4.4837 11.7808 5.09496 11.8912 6.40641C11.8929 6.4283 11.8901 6.45032 11.8829 6.47107C11.8757 6.49184 11.8644 6.51092 11.8496 6.52713C11.8348 6.54335 11.8168 6.55636 11.7968 6.56535C11.7767 6.57435 11.7551 6.57915 11.7331 6.57945H11.0174C10.9815 6.57895 10.9468 6.56643 10.9188 6.54391C10.8909 6.52138 10.8713 6.49014 10.8631 6.45516C10.6922 5.6939 10.2738 5.45069 9.14881 5.45069C7.88452 5.45069 7.73773 5.89105 7.73773 6.22106C7.73773 6.6207 7.9113 6.73749 9.61811 6.96303C11.3072 7.18642 12.1097 7.5025 12.1097 8.68966C12.1097 9.88754 11.1112 10.5733 9.36954 10.5733C6.96147 10.5765 6.45735 9.47235 6.45735 8.54609Z" fill="#A5B8CA"/>
</svg>
