<svg width="15" height="15" viewBox="0 0 15 15" fill="none" xmlns="http://www.w3.org/2000/svg">
<path d="M7.05647 14C6.8676 14.0001 6.68204 13.9504 6.51846 13.856L4.80644 12.8425C4.55093 12.6995 4.67543 12.649 4.75993 12.6195C5.03168 12.5355 5.29186 12.4179 5.53445 12.2695C5.55475 12.2601 5.57712 12.256 5.59943 12.2577C5.62174 12.2593 5.64326 12.2667 5.66195 12.279L6.97747 13.0605C7.00196 13.0734 7.02925 13.0802 7.05697 13.0802C7.08468 13.0802 7.11197 13.0734 7.13647 13.0605L12.2665 10.0994C12.2905 10.0851 12.3104 10.0647 12.3242 10.0403C12.3379 10.016 12.3451 9.98843 12.345 9.96044V4.03736C12.3451 4.00893 12.3378 3.98098 12.3238 3.9562C12.3099 3.93141 12.2898 3.91063 12.2655 3.89586L7.13547 0.937319C7.11128 0.923694 7.08398 0.916537 7.05622 0.916537C7.02845 0.916537 7.00116 0.923694 6.97697 0.937319L1.84989 3.89686C1.82544 3.91132 1.80513 3.93186 1.79094 3.95647C1.77675 3.98109 1.76916 4.00895 1.76889 4.03736V9.95794C1.76896 9.98587 1.77645 10.0133 1.7906 10.0373C1.80475 10.0614 1.82504 10.0813 1.84939 10.0949L3.25641 10.907C4.01892 11.288 4.48593 10.839 4.48593 10.3879V4.54237C4.48593 4.50259 4.50173 4.46443 4.52987 4.4363C4.558 4.40817 4.59615 4.39237 4.63593 4.39237H5.28594C5.32573 4.39237 5.36388 4.40817 5.39201 4.4363C5.42014 4.46443 5.43594 4.50259 5.43594 4.54237V10.3884C5.43594 11.406 4.88194 11.9885 3.91692 11.9885C3.50061 11.9957 3.09082 11.8844 2.73541 11.6675L1.38689 10.894C1.22318 10.7986 1.08734 10.662 0.992936 10.4978C0.89853 10.3335 0.848859 10.1474 0.848881 9.95794V4.03736C0.848394 3.84762 0.897855 3.6611 0.992294 3.49653C1.08673 3.33197 1.22282 3.19516 1.38689 3.09985L6.51746 0.137807C6.68273 0.04739 6.86808 0 7.05647 0C7.24485 0 7.43021 0.04739 7.59547 0.137807L12.7255 3.09985C12.8892 3.195 13.0251 3.33141 13.1196 3.49548C13.2141 3.65955 13.2639 3.84553 13.2641 4.03486V9.95794C13.2638 10.1474 13.2139 10.3335 13.1194 10.4977C13.025 10.6619 12.8892 10.7985 12.7255 10.894L7.59547 13.856C7.43159 13.9506 7.24567 14.0002 7.05647 14V14Z" fill="#83CD29"/>
<path d="M6.08345 7.97637C6.08345 7.93658 6.09925 7.89843 6.12738 7.8703C6.15552 7.84217 6.19367 7.82637 6.23345 7.82637H6.89696C6.93241 7.82648 6.96668 7.83915 6.99368 7.86212C7.02068 7.8851 7.03867 7.91689 7.04446 7.95187C7.14446 8.62738 7.44447 8.96788 8.80099 8.96788C9.8815 8.96788 10.342 8.72338 10.342 8.14987C10.342 7.81937 10.2115 7.57386 8.53198 7.40936C7.12796 7.27036 6.25995 6.95935 6.25995 5.83734C6.25995 4.80232 7.13246 4.18481 8.59498 4.18481C10.2385 4.18481 11.052 4.75532 11.155 5.97934C11.1566 5.99977 11.154 6.02032 11.1473 6.03969C11.1406 6.05907 11.13 6.07688 11.1162 6.09201C11.1024 6.10715 11.0856 6.11929 11.0669 6.12768C11.0482 6.13608 11.028 6.14056 11.0075 6.14084H10.3395C10.306 6.14037 10.2736 6.12869 10.2475 6.10767C10.2214 6.08664 10.2031 6.05748 10.1955 6.02484C10.036 5.31433 9.6455 5.08733 8.59548 5.08733C7.41547 5.08733 7.27847 5.49833 7.27847 5.80634C7.27847 6.17934 7.44047 6.28834 9.03349 6.49885C10.61 6.70735 11.359 7.00235 11.359 8.11037C11.359 9.22839 10.427 9.86839 8.80149 9.86839C6.55396 9.87139 6.08345 8.84088 6.08345 7.97637V7.97637Z" fill="#83CD29"/>
</svg>
