<svg width="17" height="15" viewBox="0 0 17 15" fill="none" xmlns="http://www.w3.org/2000/svg">
<path d="M13.9758 4.85683C13.7949 4.79533 13.6126 4.73836 13.4288 4.68597C13.4597 4.56097 13.4881 4.43749 13.5133 4.31617C13.9274 2.324 13.6567 0.719067 12.732 0.190646C11.8455 -0.315932 10.3956 0.212291 8.93128 1.47525C8.78696 1.59994 8.64585 1.72823 8.50808 1.85999C8.41585 1.77237 8.32199 1.68646 8.22654 1.60229C6.69188 0.251896 5.15362 -0.317248 4.22996 0.212686C3.34419 0.720844 3.08191 2.22959 3.45472 4.11762C3.49181 4.30461 3.53369 4.49063 3.58032 4.67551C3.36258 4.73683 3.15248 4.80209 2.9514 4.87157C1.15212 5.49328 0.00308228 6.46755 0.00308228 7.47815C0.00308228 8.5219 1.23663 9.5688 3.11065 10.2036C3.26258 10.2549 3.41578 10.3024 3.5701 10.346C3.51998 10.5452 3.47549 10.7456 3.43667 10.9472C3.08125 12.8025 3.3588 14.2756 4.24217 14.7805C5.15455 15.302 6.6859 14.766 8.17695 13.4743C8.29786 13.3692 8.41611 13.2613 8.53158 13.1504C8.68078 13.2931 8.83397 13.4316 8.99096 13.5658C10.4353 14.7975 11.8618 15.2949 12.7443 14.7885C13.6558 14.2656 13.9521 12.6831 13.5675 10.7578C13.5372 10.6069 13.5032 10.4568 13.4656 10.3076C13.5731 10.276 13.6787 10.2435 13.7816 10.2097C15.7298 9.57005 16.9974 8.53584 16.9974 7.47815C16.9974 6.46387 15.8113 5.48301 13.9758 4.85683V4.85683ZM13.5533 9.52683C13.4603 9.55729 13.365 9.5867 13.2678 9.61532C13.0527 8.94051 12.7625 8.22301 12.4073 7.48163C12.7462 6.75795 13.0253 6.04959 13.2344 5.3792C13.4082 5.42907 13.5769 5.48163 13.7395 5.53709C15.3122 6.07367 16.2714 6.8669 16.2714 7.47815C16.2714 8.1292 15.2354 8.9744 13.5533 9.52683V9.52683ZM12.8553 10.8975C13.0254 11.7488 13.0496 12.5185 12.937 13.1203C12.8358 13.661 12.6323 14.0215 12.3805 14.1659C11.845 14.4731 10.6997 14.0738 9.46447 13.0204C9.31845 12.8956 9.17596 12.7668 9.03716 12.6342C9.51605 12.1152 9.99462 11.5118 10.4617 10.8417C11.2833 10.7695 12.0594 10.6513 12.7633 10.4901C12.798 10.6287 12.8288 10.7646 12.8553 10.8975V10.8975ZM5.79682 14.1128C5.27358 14.2959 4.85682 14.3012 4.60489 14.1572C4.06884 13.8508 3.84599 12.668 4.14996 11.0814C4.1861 10.894 4.22747 10.7075 4.27403 10.5223C4.97014 10.6749 5.74066 10.7847 6.56415 10.8508C7.03442 11.5066 7.52679 12.1093 8.02301 12.637C7.91756 12.7382 7.8096 12.8367 7.69925 12.9326C7.03986 13.5037 6.37914 13.909 5.79682 14.1128V14.1128ZM3.34552 9.52282C2.51685 9.24209 1.83249 8.87729 1.36342 8.4792C0.941886 8.1215 0.729125 7.7663 0.729125 7.47815C0.729125 6.86486 1.65166 6.08262 3.19038 5.55097C3.37712 5.4865 3.57255 5.42565 3.77536 5.36854C3.98805 6.05407 4.267 6.77084 4.60363 7.49565C4.26262 8.23117 3.97969 8.9594 3.76494 9.65301C3.62408 9.61303 3.48423 9.56961 3.34552 9.52282V9.52282ZM4.16722 3.9794C3.84785 2.36183 4.05995 1.14163 4.59374 0.835383C5.16225 0.509199 6.41944 0.974265 7.74453 2.14032C7.83094 2.21653 7.91594 2.29428 7.99951 2.37354C7.50575 2.899 7.01789 3.49723 6.55181 4.14907C5.75254 4.22249 4.98746 4.34038 4.28406 4.49834C4.24072 4.32638 4.20176 4.15337 4.16722 3.97946V3.9794ZM11.4978 5.77334C11.3317 5.48893 11.1594 5.2081 10.981 4.93104C11.5232 4.999 12.0428 5.0892 12.5306 5.19946C12.3842 5.66472 12.2016 6.15111 11.9867 6.64979C11.8297 6.35445 11.6667 6.06224 11.4978 5.77334V5.77334ZM8.50841 2.88775C8.84325 3.24729 9.17862 3.64867 9.50849 4.0842C8.83934 4.05288 8.16907 4.05275 7.4999 4.0838C7.8301 3.65229 8.16832 3.25144 8.50841 2.88775ZM5.49982 5.77828C5.33308 6.06485 5.17312 6.35523 5.02006 6.6492C4.80869 6.15229 4.6278 5.66367 4.48009 5.19183C4.96496 5.08433 5.48203 4.99644 6.0208 4.92972C5.84046 5.20847 5.66675 5.49138 5.49982 5.77821V5.77828ZM6.03627 10.0778C5.47964 10.0162 4.9548 9.93282 4.47007 9.82821C4.6201 9.34795 4.80497 8.84894 5.02092 8.34137C5.17459 8.63555 5.33522 8.92612 5.50267 9.21282C5.67487 9.50755 5.85318 9.79624 6.03627 10.0778ZM8.52846 12.1192C8.18432 11.7513 7.84112 11.3443 7.50594 10.9065C7.83136 10.9191 8.16308 10.9256 8.50025 10.9256C8.84664 10.9256 9.18905 10.9179 9.52608 10.903C9.19515 11.3487 8.86104 11.7563 8.52846 12.1192ZM11.9936 8.31545C12.2207 8.82861 12.4122 9.32499 12.5642 9.79703C12.0715 9.90847 11.5395 9.99821 10.979 10.0649C11.1586 9.78265 11.3325 9.49694 11.5007 9.20788C11.6716 8.91407 11.836 8.61651 11.9936 8.31545V8.31545ZM10.8718 8.84841C10.6144 9.29159 10.3425 9.72636 10.0566 10.152C9.5386 10.1884 9.0195 10.2064 8.50025 10.2062C7.97136 10.2062 7.45695 10.1899 6.96159 10.158C6.66819 9.73333 6.39111 9.2978 6.13093 8.85236H6.131C5.87205 8.40927 5.63017 7.9566 5.40588 7.49532C5.6296 7.03393 5.87074 6.58104 6.12881 6.13762L6.12874 6.13769C6.38671 5.69415 6.66158 5.26048 6.95277 4.83762C7.45815 4.79972 7.97641 4.77999 8.50018 4.77999H8.50025C9.02641 4.77999 9.54533 4.79992 10.0506 4.83808C10.3388 5.26031 10.6119 5.69248 10.8694 6.1338C11.1284 6.57625 11.3727 7.02693 11.602 7.48512C11.375 7.948 11.1315 8.40272 10.8718 8.84841V8.84841ZM12.3694 0.813936C12.9385 1.1392 13.1598 2.45084 12.8023 4.17091C12.7794 4.28065 12.7538 4.39242 12.7259 4.50578C12.0208 4.34446 11.2552 4.22453 10.4536 4.14999C9.98665 3.49098 9.50278 2.89183 9.01705 2.37315C9.14435 2.25153 9.27468 2.13308 9.40791 2.01788C10.6626 0.935844 11.8352 0.508607 12.3694 0.813936V0.813936ZM8.50025 5.9742C9.33834 5.9742 10.0178 6.64755 10.0178 7.47815C10.0178 8.30874 9.33834 8.98209 8.50025 8.98209C7.66215 8.98209 6.9827 8.30874 6.9827 7.47815C6.9827 6.64755 7.66215 5.9742 8.50025 5.9742V5.9742Z" fill="#00D8FF"/>
</svg>
