<svg width="15" height="15" viewBox="0 0 15 15" fill="none" xmlns="http://www.w3.org/2000/svg">
<path d="M10.5581 0.665405H1.14687C0.842964 0.666253 0.551745 0.787357 0.336848 1.00225C0.121951 1.21715 0.000848123 1.50837 0 1.81228V12.1915C0.000848123 12.4954 0.121951 12.7866 0.336848 13.0015C0.551745 13.2164 0.842964 13.3375 1.14687 13.3383H7.34567C7.27496 10.2539 8.32862 4.26833 10.5581 0.665405Z" fill="#A5B8CA"/>
<path d="M12.7533 0.325809C12.1105 -0.248966 11.3284 -0.0180918 10.557 0.665425C10.4429 0.767203 10.3288 0.879694 10.2152 1.00022C8.76416 2.71639 7.76079 4.76528 7.29476 6.96385C7.43862 7.2777 7.55233 7.6045 7.63438 7.93985C7.65366 8.01484 7.67134 8.08555 7.68795 8.14554C7.72116 8.2875 7.74151 8.37963 7.74151 8.37963C7.74151 8.37963 7.72973 8.33517 7.68098 8.19429L7.64938 8.10323C7.643 8.08628 7.63622 8.06949 7.62902 8.05287C7.54332 7.85307 7.30762 7.43149 7.20049 7.24937C7.11103 7.51345 7.03175 7.7604 6.96586 7.98377C7.18827 8.46214 7.3516 8.9658 7.45225 9.48365C7.45225 9.48365 7.43618 9.42205 7.36065 9.20778C7.21553 8.89485 7.05462 8.58948 6.87855 8.29286C6.76468 8.58671 6.71641 8.90189 6.73713 9.21635C6.85511 9.45157 6.9438 9.70037 7.00122 9.95719C7.18013 10.6445 7.30441 11.4817 7.30441 11.4817L7.31512 11.6226C7.2916 12.195 7.30323 12.7684 7.34994 13.3394C7.37649 13.9048 7.48179 14.4637 7.66277 15L7.75919 14.9464C7.53475 14.1404 7.44818 13.3022 7.50314 12.4673C7.60398 10.6973 7.95345 8.95034 8.54127 7.27776C9.61797 4.43441 11.1125 2.15245 12.4785 1.06397C11.2325 2.18888 9.54619 5.83144 9.04105 7.18026C8.50913 8.56904 8.10499 10.0034 7.83365 11.4656C8.15659 10.6496 8.78887 9.99422 9.59279 9.64221C9.59279 9.64221 10.2533 8.82745 11.0252 7.66398C10.5265 7.76798 10.0338 7.89906 9.54941 8.05662C9.17444 8.21411 9.07319 8.26768 9.07319 8.26768C9.78899 7.83661 10.5452 7.47653 11.331 7.19259C12.7645 4.93473 14.3265 1.72873 12.7538 0.323131" fill="#C5D2DD"/>
</svg>
