<svg width="15" height="15" viewBox="0 0 15 15" fill="none" xmlns="http://www.w3.org/2000/svg">
<path d="M14.7 14.7H0.3V7.5V0.3H14.7V14.7Z" stroke="#A5B8CA" stroke-width="0.6"/>
<path d="M2.30474 4.69113L2.3 5.30537H4.25234V10.8531H5.6334V5.30537H7.58574V4.70302C7.58574 4.36962 7.57859 4.09107 7.5691 4.08392C7.56195 4.07443 6.37384 4.06962 4.93338 4.07203L2.31195 4.07918L2.3048 4.69107L2.30474 4.69113Z" fill="#A5B8CA"/>
<path d="M11.0912 4.06173C11.4721 4.15701 11.7626 4.32599 12.0293 4.6022C12.1674 4.74986 12.3721 5.01892 12.3888 5.0832C12.3935 5.10224 11.7412 5.54035 11.346 5.78556C11.3317 5.79511 11.2745 5.73318 11.2102 5.6379C11.0174 5.35701 10.815 5.23554 10.5055 5.21415C10.0508 5.18316 9.75788 5.42128 9.76028 5.81884C9.76028 5.93556 9.77688 6.00458 9.82448 6.09986C9.92458 6.30699 10.1102 6.43079 10.6936 6.68316C11.7674 7.14516 12.2269 7.44986 12.5127 7.88316C12.8317 8.36656 12.9031 9.13796 12.6864 9.71176C12.4484 10.3356 11.8579 10.7594 11.0269 10.8999C10.7698 10.9451 10.1603 10.938 9.88408 10.888C9.28168 10.7808 8.71025 10.4832 8.35786 10.0928C8.21976 9.94036 7.9507 9.54266 7.9674 9.51416C7.97454 9.50466 8.03642 9.46656 8.10544 9.42606C8.17212 9.38796 8.42454 9.24266 8.66261 9.10456L9.09358 8.85456L9.18408 8.98796C9.31028 9.18076 9.58638 9.44506 9.75308 9.53316C10.2317 9.78556 10.8888 9.74986 11.2126 9.45936C11.3507 9.33316 11.4079 9.20226 11.4079 9.00936C11.4079 8.83556 11.3864 8.75936 11.296 8.62846C11.1793 8.46176 10.9412 8.32126 10.265 8.02846C9.49118 7.69506 9.15788 7.48796 8.8531 7.15936C8.67691 6.96892 8.51021 6.66412 8.44118 6.40935C8.38406 6.19747 8.3697 5.6665 8.41499 5.45222C8.57454 4.70456 9.13878 4.1832 9.95308 4.02839C10.2174 3.97841 10.8317 3.99746 11.0912 4.06179V4.06173Z" fill="#A5B8CA"/>
</svg>
