<svg width="68" height="68" viewBox="0 0 68 68" fill="none" xmlns="http://www.w3.org/2000/svg">
<path fill-rule="evenodd" clip-rule="evenodd" d="M6.47618 51.8095L6.47618 42.0952C6.47618 40.3776 7.15849 38.7303 8.37301 37.5158C9.58753 36.3013 11.2348 35.619 12.9524 35.619H55.0476C56.7652 35.619 58.4124 36.3013 59.627 37.5158C60.8415 38.7303 61.5238 40.3776 61.5238 42.0952V51.8095C61.5238 53.527 60.8415 55.1743 59.627 56.3888C58.4124 57.6033 56.7652 58.2856 55.0476 58.2856H12.9524C11.2348 58.2856 9.58753 57.6033 8.37301 56.3888C7.15849 55.1743 6.47618 53.527 6.47618 51.8095V51.8095Z" stroke="#E87A6A" stroke-width="3.2381" stroke-linecap="round" stroke-linejoin="round"/>
<path d="M21.0476 46.9524C21.0476 45.164 19.5979 43.7143 17.8095 43.7143C16.0212 43.7143 14.5714 45.164 14.5714 46.9524C14.5714 48.7407 16.0212 50.1905 17.8095 50.1905C19.5979 50.1905 21.0476 48.7407 21.0476 46.9524Z" fill="#E87A6A"/>
<path fill-rule="evenodd" clip-rule="evenodd" d="M6.47619 29.1234L6.50858 19.4091C6.51372 17.6949 7.1983 16.0526 8.41226 14.8423C9.62623 13.632 11.2705 12.9523 12.9848 12.9523L55.0476 12.9523C55.8997 12.9523 56.7435 13.1205 57.5305 13.4472C58.3175 13.7738 59.0322 14.2526 59.6339 14.856C60.2355 15.4595 60.7121 16.1757 61.0364 16.9637C61.3608 17.7516 61.5264 18.5959 61.5238 19.448L61.4914 29.1623C61.4863 30.8765 60.8017 32.5187 59.5877 33.7291C58.3738 34.9394 56.7295 35.619 55.0152 35.619H12.9524C12.1003 35.619 11.2566 35.4509 10.4696 35.1242C9.68256 34.7975 8.96777 34.3188 8.36614 33.7153C7.76452 33.1119 7.28789 32.3957 6.96358 31.6077C6.63926 30.8197 6.47364 29.9755 6.47619 29.1234V29.1234Z" stroke="#E87A6A" stroke-width="3.2381" stroke-linecap="round" stroke-linejoin="round"/>
<path d="M21.0476 24.2856C21.0476 22.4972 19.5979 21.0475 17.8095 21.0475C16.0212 21.0475 14.5714 22.4972 14.5714 24.2856C14.5714 26.0739 16.0212 27.5237 17.8095 27.5237C19.5979 27.5237 21.0476 26.0739 21.0476 24.2856Z" fill="#E87A6A"/>
</svg>
