<svg width="24" height="24" viewBox="0 0 24 24" fill="none" xmlns="http://www.w3.org/2000/svg">
<path d="M23.8 9.92C22.84 4.28 17.92 0 12 0C6.08001 0 1.16001 4.28 0.200012 9.92L12 4L23.8 9.92ZM0.200012 14.08C1.16001 19.72 6.08001 24 12 24C17.92 24 22.84 19.72 23.8 14.08L12 20L0.200012 14.08Z" fill="#699635"/>
<path d="M12 4L0.2 9.92C0.08 10.6 0 11.28 0 12C0 12.72 0.08 13.4 0.2 14.08L12 20L23.8 14.08C23.92 13.4 24 12.72 24 12C24 11.28 23.92 10.6 23.8 9.92L12 4Z" fill="#FFE62E"/>
<path d="M9.6 10.5601C8.32 10.5601 7.12 10.8401 6.04 11.3201C6 11.5601 6 11.7601 6 12.0001C6 15.3201 8.68 18.0001 12 18.0001C14.24 18.0001 16.2 16.7601 17.24 14.9601C15.76 12.3601 12.88 10.5601 9.6 10.5601Z" fill="#428BC1"/>
<path d="M17.92 12.96C17.96 12.64 18 12.32 18 12C18 8.68 15.32 6 12 6C9.63998 6 7.59998 7.36 6.59998 9.36C7.55998 9.08 8.55998 8.92 9.59998 8.92C13 8.92 16 10.52 17.92 12.96Z" fill="#428BC1"/>
<path d="M9.59998 8.91992C8.55998 8.91992 7.55998 9.07992 6.59998 9.35992C6.31998 9.95992 6.11998 10.5999 6.03998 11.3199C7.11998 10.8399 8.31998 10.5599 9.59998 10.5599C12.88 10.5599 15.76 12.3199 17.24 14.9199C17.6 14.3199 17.8 13.6399 17.92 12.9599C16 10.5199 13 8.91992 9.59998 8.91992Z" fill="white"/>
<path d="M7.99998 12.4001C8.22089 12.4001 8.39998 12.221 8.39998 12.0001C8.39998 11.7792 8.22089 11.6001 7.99998 11.6001C7.77906 11.6001 7.59998 11.7792 7.59998 12.0001C7.59998 12.221 7.77906 12.4001 7.99998 12.4001Z" fill="white"/>
<path d="M9.60001 14.8C9.82093 14.8 10 14.6209 10 14.4C10 14.1791 9.82093 14 9.60001 14C9.3791 14 9.20001 14.1791 9.20001 14.4C9.20001 14.6209 9.3791 14.8 9.60001 14.8Z" fill="white"/>
<path d="M12 14.8C12.2209 14.8 12.4 14.6209 12.4 14.4C12.4 14.1791 12.2209 14 12 14C11.7791 14 11.6 14.1791 11.6 14.4C11.6 14.6209 11.7791 14.8 12 14.8Z" fill="white"/>
<path d="M12 16.4001C12.2209 16.4001 12.4 16.221 12.4 16.0001C12.4 15.7792 12.2209 15.6001 12 15.6001C11.7791 15.6001 11.6 15.7792 11.6 16.0001C11.6 16.221 11.7791 16.4001 12 16.4001Z" fill="white"/>
<path d="M15.2 14.8C15.4209 14.8 15.6 14.6209 15.6 14.4C15.6 14.1791 15.4209 14 15.2 14C14.9791 14 14.8 14.1791 14.8 14.4C14.8 14.6209 14.9791 14.8 15.2 14.8Z" fill="white"/>
<path d="M15.2 16.4001C15.4209 16.4001 15.6 16.221 15.6 16.0001C15.6 15.7792 15.4209 15.6001 15.2 15.6001C14.9791 15.6001 14.8 15.7792 14.8 16.0001C14.8 16.221 14.9791 16.4001 15.2 16.4001Z" fill="white"/>
<path d="M13.6 15.5998C13.8209 15.5998 14 15.4207 14 15.1998C14 14.9789 13.8209 14.7998 13.6 14.7998C13.3791 14.7998 13.2 14.9789 13.2 15.1998C13.2 15.4207 13.3791 15.5998 13.6 15.5998Z" fill="white"/>
<path d="M7.99998 14.0002C8.22089 14.0002 8.39998 13.8211 8.39998 13.6002C8.39998 13.3793 8.22089 13.2002 7.99998 13.2002C7.77906 13.2002 7.59998 13.3793 7.59998 13.6002C7.59998 13.8211 7.77906 14.0002 7.99998 14.0002Z" fill="white"/>
</svg>
