<svg width="24" height="24" viewBox="0 0 24 24" fill="none" xmlns="http://www.w3.org/2000/svg">
<g clip-path="url(#clip0_1779_184)">
<path d="M12 24C18.6274 24 24 18.6274 24 12C24 5.37258 18.6274 0 12 0C5.37258 0 0 5.37258 0 12C0 18.6274 5.37258 24 12 24Z" fill="#5805FF"/>
<mask id="mask0_1779_184" style="mask-type:luminance" maskUnits="userSpaceOnUse" x="0" y="0" width="24" height="24">
<path d="M12 24C18.6274 24 24 18.6274 24 12C24 5.37258 18.6274 0 12 0C5.37258 0 0 5.37258 0 12C0 18.6274 5.37258 24 12 24Z" fill="white"/>
</mask>
<g mask="url(#mask0_1779_184)">
<path d="M18.7213 21.8784C25.3487 21.8784 30.7213 16.5058 30.7213 9.87842C30.7213 3.251 25.3487 -2.12158 18.7213 -2.12158C12.0939 -2.12158 6.72131 3.251 6.72131 9.87842C6.72131 16.5058 12.0939 21.8784 18.7213 21.8784Z" fill="url(#paint0_radial_1779_184)"/>
</g>
<mask id="mask1_1779_184" style="mask-type:luminance" maskUnits="userSpaceOnUse" x="0" y="0" width="24" height="24">
<path d="M12 24C18.6274 24 24 18.6274 24 12C24 5.37258 18.6274 0 12 0C5.37258 0 0 5.37258 0 12C0 18.6274 5.37258 24 12 24Z" fill="white"/>
</mask>
<g mask="url(#mask1_1779_184)">
<path d="M25.8161 19.7227C32.4435 19.7227 37.8161 14.3501 37.8161 7.72266C37.8161 1.09524 32.4435 -4.27734 25.8161 -4.27734C19.1887 -4.27734 13.8161 1.09524 13.8161 7.72266C13.8161 14.3501 19.1887 19.7227 25.8161 19.7227Z" fill="url(#paint1_radial_1779_184)"/>
</g>
</g>
<defs>
<radialGradient id="paint0_radial_1779_184" cx="0" cy="0" r="1" gradientUnits="userSpaceOnUse" gradientTransform="translate(1206.72 1197.88) scale(1194.94)">
<stop stop-color="#4600D1"/>
<stop offset="0.49285" stop-color="#4600D1"/>
<stop offset="1" stop-color="#35009F"/>
</radialGradient>
<radialGradient id="paint1_radial_1779_184" cx="0" cy="0" r="1" gradientUnits="userSpaceOnUse" gradientTransform="translate(1213.82 1195.72) scale(1190.47)">
<stop stop-color="#35019E"/>
<stop offset="0.1873" stop-color="#320194"/>
<stop offset="1" stop-color="#220066"/>
</radialGradient>
<clipPath id="clip0_1779_184">
<rect width="24" height="24" fill="white"/>
</clipPath>
</defs>
</svg>
