<svg width="132" height="127" viewBox="0 0 132 127" fill="none" xmlns="http://www.w3.org/2000/svg">
<path d="M184.781 6.10352e-05H26.3972C24.0636 6.10352e-05 21.8255 0.927103 20.1753 2.57725C18.5252 4.2274 17.5981 6.46548 17.5981 8.79914V102.656C17.5981 104.99 18.5252 107.228 20.1753 108.878C21.8255 110.528 24.0636 111.455 26.3972 111.455H184.781C187.114 111.455 189.352 110.528 191.002 108.878C192.653 107.228 193.58 104.99 193.58 102.656V8.79914C193.58 6.46548 192.653 4.2274 191.002 2.57725C189.352 0.927103 187.114 6.10352e-05 184.781 6.10352e-05ZM187.714 102.656C187.714 103.434 187.405 104.18 186.855 104.73C186.304 105.28 185.558 105.589 184.781 105.589H26.3972C25.6193 105.589 24.8733 105.28 24.3233 104.73C23.7732 104.18 23.4642 103.434 23.4642 102.656V8.79914C23.4642 8.02125 23.7732 7.27522 24.3233 6.72517C24.8733 6.17512 25.6193 5.86611 26.3972 5.86611H184.781C185.558 5.86611 186.304 6.17512 186.855 6.72517C187.405 7.27522 187.714 8.02125 187.714 8.79914V102.656Z" fill="#293338"/>
<path d="M0 117.321H211.178C211.178 119.888 210.158 122.35 208.343 124.165C206.528 125.98 204.066 127 201.499 127H9.67898C7.11196 127 4.65007 125.98 2.83491 124.165C1.01975 122.35 0 119.888 0 117.321Z" fill="#293338"/>
<path d="M175.981 17.5982H105.589V52.7945H175.981V17.5982Z" fill="#293338"/>
<path d="M175.981 64.5266H105.589V70.3927H175.981V64.5266Z" fill="#293338"/>
<path d="M175.981 76.2587H105.589V82.1248H175.981V76.2587Z" fill="#293338"/>
<path d="M175.981 87.9908H105.589V93.8569H175.981V87.9908Z" fill="#293338"/>
<path d="M35.1963 17.5982V93.8569H93.8568V17.5982H35.1963ZM85.1164 22.7603L64.5265 51.0347L43.9367 22.7603H85.1164ZM40.3584 27.3358L61.0656 55.7862L40.3584 84.1779V27.3358ZM43.9954 88.6947L64.5265 60.479L85.0577 88.6947H43.9954ZM88.6947 84.1779L67.9875 55.7862L88.6947 27.3358V84.1779Z" fill="#293338"/>
</svg>
