<svg width="78" height="78" viewBox="0 0 78 78" fill="none" xmlns="http://www.w3.org/2000/svg">
<path d="M70.6875 52.4062H67.0312V21.9375C67.0294 20.3219 66.3868 18.773 65.2444 17.6306C64.102 16.4882 62.5531 15.8456 60.9375 15.8438H17.0625C15.4469 15.8456 13.898 16.4882 12.7556 17.6306C11.6132 18.773 10.9706 20.3219 10.9688 21.9375V52.4062H7.3125C6.98927 52.4062 6.67927 52.5347 6.45071 52.7632C6.22215 52.9918 6.09375 53.3018 6.09375 53.625V58.5C6.0956 60.1156 6.73822 61.6645 7.88062 62.8069C9.02301 63.9493 10.5719 64.5919 12.1875 64.5938H65.8125C67.4281 64.5919 68.977 63.9493 70.1194 62.8069C71.2618 61.6645 71.9044 60.1156 71.9062 58.5V53.625C71.9062 53.3018 71.7778 52.9918 71.5493 52.7632C71.3207 52.5347 71.0107 52.4062 70.6875 52.4062ZM13.4062 21.9375C13.4073 20.9681 13.7928 20.0388 14.4783 19.3533C15.1638 18.6678 16.0931 18.2823 17.0625 18.2812H60.9375C61.9069 18.2823 62.8362 18.6678 63.5217 19.3533C64.2072 20.0388 64.5927 20.9681 64.5938 21.9375V52.4062H13.4062V21.9375ZM69.4688 58.5C69.4677 59.4694 69.0822 60.3987 68.3967 61.0842C67.7112 61.7697 66.7819 62.1552 65.8125 62.1562H12.1875C11.2181 62.1552 10.2888 61.7697 9.6033 61.0842C8.91785 60.3987 8.5323 59.4694 8.53125 58.5V54.8438H69.4688V58.5ZM45.0938 26.8125C45.0938 27.1357 44.9653 27.4457 44.7368 27.6743C44.5082 27.9028 44.1982 28.0312 43.875 28.0312H34.125C33.8018 28.0312 33.4918 27.9028 33.2632 27.6743C33.0347 27.4457 32.9062 27.1357 32.9062 26.8125C32.9062 26.4893 33.0347 26.1793 33.2632 25.9507C33.4918 25.7222 33.8018 25.5938 34.125 25.5938H43.875C44.1982 25.5938 44.5082 25.7222 44.7368 25.9507C44.9653 26.1793 45.0938 26.4893 45.0938 26.8125Z" fill="#885FDB"/>
</svg>
