<svg width="40" height="40" viewBox="0 0 40 40" fill="none" xmlns="http://www.w3.org/2000/svg">
<path d="M25.01 17.396L20 22L14.988 17.396C14.7965 17.2077 14.5386 17.1021 14.27 17.1021C14.0014 17.1021 13.7435 17.2077 13.552 17.396C13.4583 17.489 13.3839 17.5996 13.3331 17.7214C13.2823 17.8433 13.2562 17.974 13.2562 18.106C13.2562 18.238 13.2823 18.3687 13.3331 18.4906C13.3839 18.6124 13.4583 18.723 13.552 18.816L19.28 24.43C19.4709 24.6187 19.7285 24.7245 19.997 24.7245C20.2654 24.7245 20.5231 24.6187 20.714 24.43L26.442 18.816C26.5362 18.7233 26.611 18.6128 26.6621 18.4909C26.7132 18.369 26.7395 18.2382 26.7395 18.106C26.7395 17.9738 26.7132 17.843 26.6621 17.7211C26.611 17.5992 26.5362 17.4887 26.442 17.396C26.2511 17.2079 25.994 17.1025 25.726 17.1025C25.458 17.1025 25.2008 17.2079 25.01 17.396ZM20 0.800003C14.9078 0.800003 10.0242 2.82285 6.42354 6.42355C2.82284 10.0243 0.799994 14.9078 0.799994 20C0.799994 30.606 9.39599 39.2 20 39.2C30.604 39.2 39.2 30.606 39.2 20C39.2 17.4786 38.7034 14.9819 37.7385 12.6525C36.7736 10.323 35.3593 8.20644 33.5764 6.42355C31.7936 4.64067 29.677 3.22641 27.3475 2.26152C25.0181 1.29663 22.5214 0.800003 20 0.800003V0.800003ZM20 36.708C17.8058 36.7083 15.633 36.2763 13.6058 35.4367C11.5786 34.5972 9.7366 33.3665 8.18507 31.8149C6.63353 30.2634 5.40284 28.4214 4.56328 26.3942C3.72372 24.367 3.29173 22.1942 3.29199 20C3.29199 16.6955 4.2719 13.4652 6.1078 10.7175C7.9437 7.96992 10.5531 5.82841 13.6061 4.56382C16.6591 3.29923 20.0185 2.96836 23.2596 3.61304C26.5006 4.25772 29.4777 5.84901 31.8143 8.18566C34.151 10.5223 35.7423 13.4994 36.387 16.7404C37.0316 19.9815 36.7008 23.3409 35.4362 26.3939C34.1716 29.4469 32.0301 32.0563 29.2825 33.8922C26.5348 35.7281 23.3045 36.708 20 36.708V36.708Z" fill="url(#paint0_linear)"/>
<defs>
<linearGradient id="paint0_linear" x1="0.799994" y1="37.7802" x2="16.1506" y2="3.50528" gradientUnits="userSpaceOnUse">
<stop stop-color="#569139"/>
<stop offset="1" stop-color="#89DA61"/>
</linearGradient>
</defs>
</svg>
