<svg width="79" height="104" viewBox="0 0 79 104" fill="none" xmlns="http://www.w3.org/2000/svg">
<path fill-rule="evenodd" clip-rule="evenodd" d="M0 98.6206V17.0093C0.160958 11.4228 3.76641 0.201224 16.9005 0.00691099H46.8387C57.5423 -0.23598 78.9497 5.83629 78.9497 32.0685C79.5131 42.027 73.8795 62.1384 46.8387 62.9157H21.2464V82.3469C21.2464 87.7715 18.0112 98.6206 5.07016 98.6206H0ZM21.4878 46.3991V25.0247C21.3269 22.3529 22.695 17.0093 29.4552 17.0093H43.7C48.6092 16.8473 58.4276 19.5839 58.4276 31.8256C58.7495 36.5215 56.2547 46.0105 43.7 46.3991H21.4878Z" fill="url(#paint0_linear)"/>
<path d="M71.3938 82.4848L73.2079 101.655L66.7811 102.024C52.7472 103.352 47.6964 93.3236 46.9253 88.1432L45.1337 69.2097L51.538 68.6037C65.7947 67.2546 70.7155 77.2957 71.3938 82.4848Z" fill="url(#paint1_linear)"/>
<defs>
<linearGradient id="paint0_linear" x1="1.22345e-07" y1="94.9742" x2="45.0197" y2="14.4658" gradientUnits="userSpaceOnUse">
<stop stop-color="#569139"/>
<stop offset="1" stop-color="#89DA61"/>
</linearGradient>
<linearGradient id="paint1_linear" x1="45.2554" y1="70.4961" x2="64.5831" y2="95.6257" gradientUnits="userSpaceOnUse">
<stop stop-color="#569139"/>
<stop offset="1" stop-color="#89DA61"/>
</linearGradient>
</defs>
</svg>
