<svg width="17" height="17" viewBox="0 0 17 17" fill="none" xmlns="http://www.w3.org/2000/svg">
<path d="M0.86481 7.25216L8.30231 11.5022C8.36251 11.5366 8.43065 11.5547 8.5 11.5547C8.56935 11.5547 8.6375 11.5366 8.69769 11.5022L16.1352 7.25216C16.1962 7.21732 16.2469 7.16698 16.2821 7.10623C16.3174 7.04548 16.336 6.97649 16.336 6.90625C16.336 6.83601 16.3174 6.76702 16.2821 6.70627C16.2469 6.64553 16.1962 6.59518 16.1352 6.56034L8.69769 2.31034C8.6375 2.27591 8.56935 2.2578 8.5 2.2578C8.43065 2.2578 8.36251 2.27591 8.30231 2.31034L0.86481 6.56034C0.803821 6.59518 0.753128 6.64553 0.717869 6.70627C0.68261 6.76702 0.664039 6.83601 0.664039 6.90625C0.664039 6.97649 0.68261 7.04548 0.717869 7.10623C0.753128 7.16698 0.803821 7.21732 0.86481 7.25216V7.25216ZM8.5 3.11512L15.1344 6.90625L8.5 10.6974L1.86555 6.90625L8.5 3.11512ZM16.2835 9.36481C16.3094 9.41024 16.3262 9.46034 16.3328 9.51224C16.3394 9.56415 16.3357 9.61685 16.3219 9.66733C16.3082 9.71781 16.2846 9.76508 16.2526 9.80645C16.2205 9.84781 16.1806 9.88246 16.1352 9.90841L8.69769 14.1584C8.6375 14.1928 8.56935 14.211 8.5 14.211C8.43065 14.211 8.36251 14.1928 8.30231 14.1584L0.86481 9.90841C0.818818 9.88275 0.77837 9.84822 0.745805 9.80683C0.713241 9.76544 0.689206 9.718 0.675091 9.66725C0.660975 9.61651 0.65706 9.56348 0.663571 9.51121C0.670082 9.45895 0.686891 9.4085 0.713024 9.36277C0.739157 9.31704 0.774097 9.27695 0.815822 9.24481C0.857548 9.21268 0.905231 9.18913 0.956114 9.17553C1.007 9.16194 1.06007 9.15857 1.11226 9.16562C1.16446 9.17266 1.21474 9.18999 1.26019 9.21659L8.5 13.3536L15.7398 9.21659C15.7852 9.19061 15.8353 9.17384 15.8872 9.16723C15.9391 9.16062 15.9918 9.16431 16.0423 9.17807C16.0928 9.19184 16.1401 9.21541 16.1814 9.24745C16.2228 9.2795 16.2575 9.31937 16.2834 9.36481H16.2835Z" fill="#8795B8"/>
</svg>
