<svg width="18" height="22" viewBox="0 0 18 22" fill="none" xmlns="http://www.w3.org/2000/svg">
<g filter="url(#filter0_d)">
<path d="M9 2.98667C8.49632 2.98667 8.00394 3.13603 7.58515 3.41586C7.16635 3.69569 6.83994 4.09342 6.64719 4.55877C6.45443 5.02411 6.404 5.53616 6.50227 6.03016C6.60053 6.52417 6.84308 6.97794 7.19923 7.3341C7.55539 7.69026 8.00916 7.9328 8.50317 8.03107C8.99717 8.12933 9.50922 8.0789 9.97457 7.88615C10.4399 7.6934 10.8376 7.36698 11.1175 6.94819C11.3973 6.52939 11.5467 6.03702 11.5467 5.53333C11.5467 4.85792 11.2784 4.21016 10.8008 3.73257C10.3232 3.25498 9.67542 2.98667 9 2.98667V2.98667ZM9 7.19111C8.67212 7.19111 8.35161 7.09389 8.07899 6.91173C7.80637 6.72957 7.59389 6.47066 7.46841 6.16774C7.34294 5.86482 7.31011 5.53149 7.37407 5.20992C7.43804 4.88834 7.59593 4.59295 7.82777 4.36111C8.05962 4.12926 8.355 3.97138 8.67658 3.90741C8.99816 3.84344 9.33148 3.87627 9.6344 4.00175C9.93732 4.12722 10.1962 4.3397 10.3784 4.61232C10.5605 4.88494 10.6578 5.20546 10.6578 5.53333C10.6566 5.97223 10.4814 6.39275 10.1707 6.70269C9.85989 7.01262 9.4389 7.18667 9 7.18667V7.19111Z" fill="#8795B8"/>
<path d="M9.00001 0.888889C7.61565 0.890045 6.288 1.43897 5.30703 2.41578C4.32606 3.39258 3.77149 4.71788 3.76445 6.10222C3.76445 8.17778 4.92889 9.91556 5.78223 11.1822L5.93778 11.4133C6.7868 12.6438 7.69759 13.8305 8.66667 14.9689L9.00445 15.3644L9.34223 14.9689C10.3112 13.8304 11.222 12.6437 12.0711 11.4133L12.2267 11.1778C13.0756 9.91111 14.24 8.17778 14.24 6.10222C14.233 4.71711 13.6778 3.39114 12.6958 2.41421C11.7139 1.43728 10.3851 0.888871 9.00001 0.888889V0.888889ZM11.4845 10.6667L11.3245 10.9022C10.56 12.0489 9.54667 13.3333 9.00001 13.9689C8.47556 13.3333 7.44001 12.0489 6.67556 10.9022L6.52001 10.6667C5.73334 9.49333 4.65334 7.88889 4.65334 6.08444C4.65334 5.51363 4.76577 4.94841 4.98421 4.42105C5.20265 3.89369 5.52282 3.41451 5.92645 3.01089C6.33007 2.60726 6.80925 2.28709 7.33661 2.06865C7.86397 1.85021 8.42919 1.73778 9.00001 1.73778C9.57082 1.73778 10.136 1.85021 10.6634 2.06865C11.1908 2.28709 11.6699 2.60726 12.0736 3.01089C12.4772 3.41451 12.7974 3.89369 13.0158 4.42105C13.2342 4.94841 13.3467 5.51363 13.3467 6.08444C13.3467 7.90667 12.2711 9.51111 11.4845 10.6667V10.6667Z" fill="#8795B8"/>
</g>
<defs>
<filter id="filter0_d" x="-2.2" y="0" width="22.4" height="22.4" filterUnits="userSpaceOnUse" color-interpolation-filters="sRGB">
<feFlood flood-opacity="0" result="BackgroundImageFix"/>
<feColorMatrix in="SourceAlpha" type="matrix" values="0 0 0 0 0 0 0 0 0 0 0 0 0 0 0 0 0 0 127 0"/>
<feOffset dy="3.2"/>
<feGaussianBlur stdDeviation="1.6"/>
<feColorMatrix type="matrix" values="0 0 0 0 0 0 0 0 0 0 0 0 0 0 0 0 0 0 0.25 0"/>
<feBlend mode="normal" in2="BackgroundImageFix" result="effect1_dropShadow"/>
<feBlend mode="normal" in="SourceGraphic" in2="effect1_dropShadow" result="shape"/>
</filter>
</defs>
</svg>
